<svg id="Icons" width="102.5" height="102.5" viewBox="0 0 74 74" xmlns="http://www.w3.org/2000/svg"><path d="m35.5 61.85h-2.94a1 1 0 0 1 0-2h2.94a1 1 0 0 1 0 2z"/><path d="m71 61.85h-18.56a1 1 0 0 1 0-2h17.56v-37.9a7.809 7.809 0 0 0 -7.8-7.8h-50.4a7.809 7.809 0 0 0 -7.8 7.8v37.9h21.56a1 1 0 0 1 0 2h-22.56a1 1 0 0 1 -1-1v-38.9a9.811 9.811 0 0 1 9.8-9.8h50.4a9.811 9.811 0 0 1 9.8 9.8v38.9a1 1 0 0 1 -1 1z"/><path d="m45.44 61.85h-2.94a1 1 0 0 1 0-2h2.94a1 1 0 0 1 0 2z"/><path d="m16.357 61.851a1 1 0 0 1 -1-1v-47.7a1 1 0 0 1 2 0v47.7a1 1 0 0 1 -1 1z"/><path d="m57.642 61.851a1 1 0 0 1 -1-1v-47.7a1 1 0 1 1 2 0v47.7a1 1 0 0 1 -1 1z"/><path d="m30.36 31.36h-27.36a1 1 0 0 1 0-2h27.36a1 1 0 0 1 0 2z"/><path d="m71 31.36h-27.36a1 1 0 0 1 0-2h27.36a1 1 0 0 1 0 2z"/><path d="m43.641 38h-13.279a1 1 0 0 1 -1-1v-13.278a1 1 0 0 1 1-1h13.279a1 1 0 0 1 1 1v13.278a1 1 0 0 1 -1 1zm-12.279-2h11.279v-11.278h-11.279z"/><path d="m37 32.634a3.082 3.082 0 1 1 3.082-3.082 3.086 3.086 0 0 1 -3.082 3.082zm0-4.163a1.082 1.082 0 1 0 1.082 1.081 1.083 1.083 0 0 0 -1.082-1.081z"/><path d="m37 34.38a1 1 0 0 1 -1-1v-1.746a1 1 0 1 1 2 0v1.746a1 1 0 0 1 -1 1z"/></svg>