<svg width="102.5" height="102.5" id="Capa_1" enable-background="new 0 0 512 512" viewBox="0 0 512 512" xmlns="http://www.w3.org/2000/svg"><g><path d="m452 346v90h-392v-90l190.6-45 5.4 1.199z" fill="#995a4d"/><path d="m256 302.199 196 43.801v90h-196z" fill="#804540"/><path d="m60 256h392v90h-392z" fill="#b37059"/><path d="m256 256h196v90h-196z" fill="#995a4d"/><path d="m452 151v75h-392v-75l190.6-30 5.4.901z" fill="#995a4d"/><path d="m452 151v75h-196v-104.099z" fill="#804540"/><path d="m60 76h392v75h-392z" fill="#b37059"/><path d="m256 76h196v75h-196z" fill="#995a4d"/><g><path d="m467 46h-30c-8.401 0-15 6.599-15 15v345h-332v-345c0-8.401-6.599-15-15-15h-30c-8.401 0-15 6.599-15 15v390c0 8.401 6.599 15 15 15h422c8.401 0 15-6.599 15-15v-390c0-8.401-6.599-15-15-15z" fill="#ffbe40"/></g><path d="m482 61v390c0 8.401-6.599 15-15 15h-211v-60h166v-345c0-8.401 6.599-15 15-15h30c8.401 0 15 6.599 15 15z" fill="#ff9f40"/><g><path d="m497 196h-482c-8.401 0-15 6.599-15 15v60c0 8.401 6.599 15 15 15h482c8.401 0 15-6.599 15-15v-60c0-8.401-6.599-15-15-15z" fill="#ffdf40"/></g><path d="m512 211v60c0 8.401-6.599 15-15 15h-241v-90h241c8.401 0 15 6.599 15 15z" fill="#ffbe40"/><g><path d="m316 136h-120c-8.401 0-15 6.599-15 15v180c0 8.401 6.599 15 15 15h120c8.401 0 15-6.599 15-15v-180c0-8.401-6.599-15-15-15z" fill="#ffbe40"/></g><path d="m331 151v180c0 8.401-6.599 15-15 15h-60v-210h60c8.401 0 15 6.599 15 15z" fill="#ff9f40"/><g><g><path d="m271 211v60c0 8.401-6.599 15-15 15s-15-6.599-15-15v-60c0-8.401 6.599-15 15-15s15 6.599 15 15z" fill="#595353"/></g></g><path d="m256 286v-90c8.401 0 15 6.599 15 15v60c0 8.401-6.599 15-15 15z" fill="#403939"/></g></svg>