<svg id="Capa_1"  width="102.5" height="102.5"  enable-background="new 0 0 497.235 497.235" viewBox="0 0 497.235 497.235" xmlns="http://www.w3.org/2000/svg"><g><path d="m321.995 455.363 65.411 40.58c1.361.844 2.931 1.292 4.533 1.292h11.962c6.16 0 10.322-6.287 7.916-11.957l-24.332-57.349-32.899-83.646-89.394 62.901z" fill="#918291"/><path d="m175.239 455.363-65.411 40.58c-1.361.844-2.931 1.292-4.533 1.292h-11.963c-6.16 0-10.322-6.287-7.916-11.957l24.332-57.349 26.465-72.639 93.334 54.098z" fill="#918291"/><path d="m387.41 127.683 25.718-118.825c.986-4.555-2.485-8.858-7.146-8.858h-32.043c-3.442 0-6.418 2.401-7.146 5.765l-25.127 116.094-21.317 98.924h48.484z" fill="#d1a08f"/><g><path d="m428.425 186.803 5.113 7.944c73.247 113.8-8.458 263.554-143.792 263.554h-82.257c-135.335 0-217.039-149.755-143.792-263.554l5.113-7.944 18.085-29.556h328.15z" fill="#b5adb6"/><path d="m431.938 206.807c2.825 0 5.579-.306 8.236-.874-2.054-3.762-4.259-7.493-6.636-11.186l-5.113-7.944-13.38-29.556h-254.771-33.385-39.994l-18.085 29.556-5.113 7.944c-73.247 113.8 8.458 263.554 143.792 263.554h73.378c-115.021 0-191.288-108.17-166.625-210.505 5.788-24.016 27.206-40.989 51.909-40.989z" fill="#a79ba7"/><path d="m431.937 127.687h-366.64c-10.68 0-19.34 8.65-19.34 19.33v20.45c0 10.68 8.66 19.34 19.34 19.34h366.64c10.68 0 19.34-8.66 19.34-19.34v-20.45c0-10.68-8.66-19.33-19.34-19.33z" fill="#b5adb6"/><g fill="#fe76a8"><path d="m124.423 290.609c-11.281 0-20.425-9.145-20.425-20.425v-138.952c0-5.177 4.197-9.374 9.374-9.374h22.103c5.177 0 9.374 4.197 9.374 9.374v138.951c0 11.281-9.145 20.426-20.426 20.426z"/><path d="m228.008 141.673v196.352c0 9.535 7.729 17.264 17.264 17.264 9.535 0 17.264-7.729 17.264-17.264v-80.485c0-8.863 7.185-16.048 16.048-16.048 8.863 0 16.048 7.185 16.048 16.048v33.312c0 9.535 7.729 17.264 17.264 17.264 9.535 0 17.264-7.729 17.264-17.264v-60.843c0-2.211 1.221-4.242 3.173-5.279l6.205-3.296c13.382-7.109 21.746-21.024 21.746-36.177v-43.584c0-10.943-8.871-19.814-19.814-19.814h-92.648c-10.943 0-19.814 8.871-19.814 19.814z"/><path d="m311.897 405.114c-9.535 0-17.264-7.729-17.264-17.264v-26.304c0-9.535 7.729-17.264 17.264-17.264 9.535 0 17.264 7.729 17.264 17.264v26.304c0 9.535-7.729 17.264-17.264 17.264z"/><circle cx="178.587" cy="83.692" r="15.924"/><circle cx="108.499" cy="27.549" r="27.247"/></g></g></g></svg>