<svg id="Capa_1" width="102.5" height="102.5" enable-background="new 0 0 512 512" viewBox="0 0 512 512" xmlns="http://www.w3.org/2000/svg"><g><g><path d="m256 402.333-10.667 35.001 10.667 74.666c41.213 0 81.347-14.53 113.008-40.915l22.832-19.028-25.871-49.725h-109.969z" fill="#4786b3"/><path d="m146.03 402.333-25.871 49.725 22.833 19.028c31.661 26.384 71.795 40.914 113.008 40.914v-109.667z" fill="#429bdb"/></g><g><g><path d="m256 240.281-12.151 26.385 12.151 64.001 87.298-32v-58.386z" fill="#6e6e6e"/><path d="m168.702 240.281v58.386l87.298 32v-90.386z" fill="#828282"/></g><path d="m256 320v117.333" fill="#fff"/><path d="m256 130.807v109.474" fill="#fff"/><path d="m266.667 326.803 4.333 120.208 145.184-65.685v-126.045l-85.517-9.948v53.334z" fill="#aaa"/><path d="m416.025 225.281c-3.424-80.121-65.973-145.179-145.025-152.556l-4.333 161.941z" fill="#aaa"/><path d="m181.333 245.333-85.517 9.948v126.045l145.184 65.685 4.333-120.208-64-32.203z" fill="#bebebe"/><path d="m241 72.725c-79.052 7.377-141.601 72.435-145.025 152.556l149.358 9.386z" fill="#bebebe"/><g><path d="m416.025 225.281h-145.025v-152.556c-4.94-.461-9.941-.708-15-.708l-10.667 98.649 10.667 84.615h74.667v32.719l-74.667 26.414-10.667 58.92 10.667 80.463 15-6.786v-106.387l89.667-32.842v-52.502h55.517v-23.079c0-2.319-.061-4.625-.159-6.92z" fill="#d7d7d7"/><path d="m256 314.414-74.667-26.414v-32.719h74.667v-183.264c-5.058 0-10.06.247-15 .708v152.555h-145.025c-.098 2.296-.159 4.602-.159 6.921v23.079h55.517v52.502l89.667 32.842v106.387l15 6.786z" fill="#e6e6e6"/></g></g><g><path d="m256 0-9.244 104.533 9.244 55.467c25.306 0 45.894-20.588 45.894-45.894v-74.768z" fill="#4786b3"/><path d="m210.106 39.338v74.768c0 25.306 20.588 45.894 45.894 45.894v-160z" fill="#429bdb"/></g></g></svg>