<?xml version="1.0"?>
<svg width="102.5" height="102.5" xmlns="http://www.w3.org/2000/svg" id="Layer_1" data-name="Layer 1" viewBox="0 0 512 512"><path d="M118.15,363.645l-6.569,6.56a6,6,0,0,0,8.479,8.491l6.569-6.56a6,6,0,1,0-8.479-8.491Z"/><path d="M98.577,383.208,53.4,428.4a6,6,0,0,0,8.487,8.484l45.18-45.19a6,6,0,0,0-8.486-8.484Z"/><path d="M481.479,421.925A35.781,35.781,0,0,1,469.629,402H483.59a6.643,6.643,0,0,0,6.41-6.32V375.27a6.6,6.6,0,0,0-6.41-6.27H469V63.819l11.691-11.965a6,6,0,0,0-.048-8.437l-16.611-16.61a6,6,0,0,0-8.435-.049L169.918,305.884l-5.763-5.944a6.18,6.18,0,0,0-4.243-1.94h0a6.185,6.185,0,0,0-4.242,1.937L31.208,424.487a36.562,36.562,0,1,0,51.664,51.75l90.878-90.875a43.957,43.957,0,0,0,19.965,25.965l-2.8,6.375a18.187,18.187,0,1,0,10.821,5.2l3.035-6.918a43.615,43.615,0,0,0,11.354,1.513,44.369,44.369,0,0,0,40.6-26.4,44.13,44.13,0,0,0-47.61-61.3l66.656-68.221,1.447,1.448a41.515,41.515,0,0,0,68.419-43.424,41.531,41.531,0,0,0,53.154-53.139,41.537,41.537,0,0,0,43.441-68.453l-3.361-3.361L457,76.1V369H442.02a6.254,6.254,0,0,0-6.02,6.27v20.41a6.3,6.3,0,0,0,6.02,6.32H457.5a46.053,46.053,0,0,0,16.255,29.111,16.232,16.232,0,0,1-9.8,28.6,16.3,16.3,0,0,1-11.974-4.583,16.122,16.122,0,0,1-4.989-11.7,6,6,0,1,0-12-.008A28.32,28.32,0,0,0,463.3,471.687q.552,0,1.107-.021a28.205,28.205,0,0,0,17.073-49.741ZM172.24,369.914l-2.365,2.366L152.3,354.7a6,6,0,0,0-8.485,8.485l17.578,17.577-87,87a24.533,24.533,0,0,1-34.694-34.7l87-87,3.873,3.873a6,6,0,0,0,8.485-8.485l-3.873-3.873,24.733-24.733,27.283,27.289a44.209,44.209,0,0,0-14.951,29.778ZM195,438.208v0c-2,3.1-5.221,4.511-8.324,3.152a6.2,6.2,0,0,1-3.267-8.1,6.036,6.036,0,0,1,5.538-3.677,6.079,6.079,0,0,1,2.46.525,6.489,6.489,0,0,1,3.473,3.388C195.477,435.033,195,436.7,195,438.208ZM216.289,341.2a32.16,32.16,0,1,1-6.621,63.631l11.467-26.141a6,6,0,0,0-10.99-4.82L198.59,400.212a32.161,32.161,0,0,1,.883-54.279l.006,0A32.225,32.225,0,0,1,216.289,341.2Zm111.169-86.653a29.514,29.514,0,0,1-41.756,0L284.157,253l41.271-42.239,2.028,2.028A29.567,29.567,0,0,1,327.458,254.547ZM380.609,201.4a29.534,29.534,0,0,1-41.756,0l-2.167-2.167L377.956,157l2.651,2.652A29.564,29.564,0,0,1,380.609,201.4ZM442.4,127.38a29.525,29.525,0,0,1-50.407,20.877l-2.779-2.779,41.27-42.239,3.265,3.265A29.318,29.318,0,0,1,442.4,127.38Zm-65.914,13.959L193.077,329.049,178.4,314.371,459.741,39.486l8.223,8.223ZM448,390v-9h30v9Z"/></svg>
