<svg width="102.5" height="102.5" viewBox="0 0 512 512" xmlns="http://www.w3.org/2000/svg"><path d="m355.941406 28.089844c-28.121094-28.089844-82.195312-28.089844-99.96875-28.089844-17.777344 0-71.851562 0-99.960937 28.089844-11.289063 11.273437-12.371094 40.382812-12.3125 52.378906 0 7.238281.503906 14.960938 1.347656 22.945312-31.761719-14.136718-61.910156-19.558593-75.09375-12.851562-35.429687 18.042969-52.148437 69.429688-57.640625 86.324219-5.496094 16.898437-22.1875 68.265625-4.148438 103.699219 7.246094 14.199218 34.609376 24.226562 46.078126 27.878906 6.894531 2.199218 14.507812 4.058594 22.324218 5.722656-23.304687 25.839844-37.8125 52.855469-35.5 67.472656 6.222656 39.253906 49.972656 71.015625 64.351563 81.453125 13.117187 9.515625 50.664062 36.785157 86.964843 36.785157 3.496094.007812 6.988282-.261719 10.441407-.800782 10.886719-3.398437 20.488281-10.007812 27.546875-18.960937v23.328125c0 4.714844 3.820312 8.535156 8.535156 8.535156h34.132812c4.710938 0 8.53125-3.820312 8.53125-8.535156v-23.355469c7.050782 8.976563 16.664063 15.597656 27.5625 18.988281 3.457032.539063 6.949219.808594 10.445313.800782 36.300781 0 73.847656-27.304688 86.964844-36.785157 14.378906-10.4375 58.128906-42.199219 64.347656-81.453125 2.492187-15.742187-13.738281-39.910156-20.828125-49.570312-4.265625-5.84375-9.214844-11.824219-14.601562-17.796875 34.007812-7.222657 61.578124-20.53125 68.265624-33.707031 18.058594-35.414063 1.339844-86.8125-4.144531-103.699219l-8.125 2.636719 8.117188-2.644532c-5.488281-16.886718-22.1875-68.265625-57.636719-86.316406-14.214844-7.234375-42.273438.746094-53.683594 4.507812-6.824218 2.269532-14.054687 5.121094-21.375 8.355469 3.667969-34.5625-.484375-64.878906-10.9375-75.335937zm-57.652344 222.542968c.222657 1.78125.339844 3.574219.347657 5.367188-.066407 16.5-9.601563 31.492188-24.515625 38.554688-16.726563 7.800781-36.574219 4.019531-49.261719-9.386719-12.691406-13.464844-15.257813-33.574219-6.355469-49.796875 8.902344-16.21875 27.246094-24.851563 45.417969-21.378906 18.171875 3.476562 32.035156 18.269531 34.324219 36.632812zm-130.210937-210.457031c23.109375-23.109375 71.867187-23.109375 87.894531-23.109375 16.023438 0 64.785156 0 87.890625 23.109375 4.761719 4.753907 10.96875 31.425781 4.6875 72.292969-.429687.230469-.941406.554688-1.382812.792969-2.445313 1.359375-4.894531 2.78125-7.339844 4.269531l-1.585937.953125c-5.746094 3.488281-11.433594 7.269531-17.066407 11.339844 1.246094-6.023438 2.292969-11.945313 3.019531-17.789063.464844-4.613281-2.832031-8.75-7.429687-9.328125-4.601563-.574219-8.816406 2.628907-9.5 7.210938-1.695313 12.921875-4.492187 25.679687-8.355469 38.125-13.363281 12.320312-24.941406 26.441406-34.40625 41.960937v-87.605468c0-4.710938-3.820312-8.53125-8.53125-8.53125-4.714844 0-8.535156 3.820312-8.535156 8.53125v94.535156c-4.421875.644531-8.753906 1.789062-12.917969 3.410156-15.054687-28.21875-25.15625-58.816406-29.867187-90.453125-.375-3.027344-2.335938-5.621094-5.144532-6.8125-2.8125-1.1875-6.039062-.789063-8.476562 1.050781-2.433594 1.835938-3.703125 4.835938-3.328125 7.863282 5 33.816406 15.796875 66.519531 31.917969 96.664062-3.46875 2.648438-6.636719 5.667969-9.449219 9.003906-24.296875-28.863281-40.230469-63.824218-46.078125-101.09375-2.058594-11.941406-3.152344-24.03125-3.269531-36.148437-.171875-24.097657 4.25-37.246094 7.253906-40.242188zm-144.691406 232.660157c-14.847657-29.117188.222656-75.441407 5.179687-90.675782 4.957032-15.230468 20.046875-61.558594 49.144532-76.347656 2.351562-.886719 4.863281-1.269531 7.371093-1.117188 22.082031 1.789063 43.527344 8.269532 62.898438 19.011719.191406 1.007813.417969 2.089844.632812 3.148438.332031 1.707031.699219 3.363281 1.074219 5.054687.292969 1.277344.582031 2.558594.90625 3.90625 1.519531 6.375 3.320312 12.800782 5.402344 19.234375-5.34375-3.046875-10.683594-5.886719-16-8.371093-2.769532-1.355469-6.054688-1.109376-8.59375.640624-2.539063 1.75-3.9375 4.730469-3.65625 7.804688.28125 3.070312 2.199218 5.75 5.011718 7.007812 11.777344 5.601563 23.054688 12.199219 33.707032 19.722657 7.605468 16.515625 17.476562 31.890625 29.328125 45.675781l-83.378907-27.074219c-2.941406-1.117187-6.257812-.519531-8.632812 1.546875-2.371094 2.070313-3.410156 5.273438-2.707031 8.339844.703125 3.070312 3.039062 5.5 6.074219 6.324219l89.984374 29.21875c-.585937 3.339843-.886718 6.722656-.894531 10.113281 0 1.066406.160157 2.109375.222657 3.175781-31.539063 5.589844-63.800782 5.734375-95.386719.425781-4.597657-.828124-9.007813 2.199219-9.886719 6.789063-.882812 4.589844 2.089844 9.035156 6.671875 9.96875 15.542969 2.90625 31.324219 4.335937 47.136719 4.269531 18.367187-.085937 36.695312-1.65625 54.808594-4.703125 1.445312 4.199219 3.355468 8.226563 5.699218 11.996094-1.03125.453125-2.070312.855469-3.113281 1.28125-1.773437.734375-3.550781 1.484375-5.351563 2.152344-1.382812.519531-2.773437.972656-4.164062 1.449219-1.578125.539062-3.148438 1.082031-4.734375 1.578124-1.585937.496094-3.199219.9375-4.796875 1.382813-1.332031.367187-2.660156.734375-3.992188 1.074219-1.84375.472656-3.683593.90625-5.523437 1.304687l-2.976563.632813c-2.152343.433594-4.265624.855468-6.417968 1.203125l-1.390625.214843c-22.582031 3.425782-45.550781 3.464844-68.148438.109376-12.007812-1.730469-23.855469-4.425782-35.429687-8.0625-22.96875-7.355469-34.148438-15.625-36.078125-19.40625zm176.742187 209.398437c-32.308594 5.0625-71.746094-23.523437-84.710937-32.9375-12.960938-9.410156-52.402344-38.042969-57.511719-70.304687-1.058594-6.648438 9.625-31.882813 38.738281-61.253907 3.484375.453125 7.304688.855469 11.410157 1.203125.640624.058594 1.296874.09375 1.945312.144532 5.582031.417968 11.621094.710937 18.066406.734374h.851563c-4.523438 4.121094-8.839844 8.304688-12.800781 12.5625-2.179688 2.203126-2.992188 5.421876-2.121094 8.398438s3.289062 5.246094 6.316406 5.929688c3.027344.679687 6.1875-.335938 8.246094-2.65625 8.964844-9.457032 18.714844-18.140626 29.144531-25.949219 1.371094-.171875 2.773437-.382813 4.164063-.582031 1.390624-.195313 2.644531-.355469 3.964843-.5625 3.246094-.523438 6.519531-1.128907 9.824219-1.816407.972656-.203125 1.953125-.445312 2.925781-.664062 2.636719-.589844 5.273438-1.246094 7.929688-1.957031 1.039062-.28125 2.070312-.5625 3.113281-.851563 3.34375-.957031 6.707031-1.996094 10.0625-3.175781l.382812-.117188c3.414063-1.203125 6.824219-2.5625 10.238282-4.003906l-51.507813 70.828125c-1.917969 2.457031-2.339843 5.765625-1.105469 8.628906 1.234376 2.863281 3.933594 4.824219 7.039063 5.117188 3.105469.289062 6.121094-1.136719 7.867187-3.71875l55.671876-76.578125c3.941406 2.070312 8.105468 3.683594 12.414062 4.8125-4.421875 31.714844-14.261719 62.4375-29.082031 90.828125-1.472657 2.667969-1.410157 5.921875.164062 8.53125 1.574219 2.613281 4.421875 4.183593 7.46875 4.125 3.050781-.054688 5.835938-1.734375 7.308594-4.40625 15.859375-30.292969 26.367187-63.09375 31.070313-96.964844 4.449218-.082031 8.871093-.675781 13.183593-1.765625.105469 1.050781.15625 2.082031.242188 3.125.160156 2.003906.324219 4 .40625 5.972656.0625 1.46875.0625 2.910156.085937 4.367188 0 1.707031.0625 3.328125 0 4.992187-.058594 1.664063-.101562 3.414063-.167968 5.121094-.0625 1.324219-.121094 2.652344-.207032 3.976563-.128906 1.953124-.289062 3.890624-.476562 5.820312-.09375.929688-.195313 1.867188-.300782 2.808594-.253906 2.25-.535156 4.488281-.851562 6.6875-.050781.367187-.109375.726562-.171875 1.085937-3.648437 22.25-10.570313 43.839844-20.539063 64.066407l-.050781.070312v.058594c-4.894531 10.011718-10.519531 19.648437-16.828125 28.835937-.699218 1.011719-1.390625 2.0625-2.097656 3.042969-14.167969 19.636719-25.515625 27.734375-29.714844 28.390625zm64.375-23.910156v36.609375h-17.066406v-36.617188c2.84375-4.265625 5.660156-8.785156 8.441406-13.558594l.09375-.171874.210938.351562c2.636718 4.550781 5.347656 8.894531 8.140625 13.039062.0625.125.121093.261719.179687.347657zm189.527344-79.359375c-5.121094 32.273437-44.554688 60.902344-57.515625 70.316406-12.960937 9.410156-52.367187 38.066406-84.710937 32.9375-4.933594-.777344-17.628907-10.921875-31.574219-31.113281-.050781-.085938-.074219-.195313-.136719-.28125-5.355469-7.816407-10.21875-15.960938-14.554688-24.386719.5-1.058594 1.015626-2.195312 1.527344-3.320312.511719-1.125 1.03125-2.289063 1.542969-3.414063.738281-1.707031 1.492187-3.476563 2.253906-5.308594.664063-1.613281 1.316407-3.238281 1.953125-4.871093.707032-1.828126 1.40625-3.6875 2.109375-5.605469.621094-1.707031 1.21875-3.472657 1.808594-5.230469.253906-.742188.492187-1.496094.742187-2.246094 2.558594 5.597656 5.1875 11.035156 8.019532 16.171875 1.503906 2.722657 4.367187 4.410157 7.476562 4.410157 1.4375.003906 2.855469-.363282 4.113282-1.066407 4.125-2.273437 5.625-7.460937 3.351562-11.589843-6.230469-11.453126-11.472656-23.417969-15.675781-35.761719l.050781-.296875c.570312-2.890625 1.078125-5.835938 1.527344-8.832032.191406-1.238281.324218-2.476562.496094-3.714843.289062-2.191407.554687-4.402344.777343-6.636719.128907-1.261719.246094-2.5625.351563-3.796875.195312-2.484375.339844-4.992187.449218-7.527344 0-.9375.105469-1.867187.128907-2.808593.097656-3.414063.097656-6.878907 0-10.394532 0-.792968-.085938-1.585937-.121094-2.378906-.109375-2.558594-.261719-5.171875-.492187-7.78125l51.523437 70.824219c1.722656 2.636719 4.753906 4.109375 7.890625 3.832031s5.863281-2.257812 7.097656-5.152344c1.238282-2.894531.78125-6.234375-1.191406-8.6875l-55.644531-76.535156c3.179687-3.121094 6.007812-6.578125 8.429687-10.316406 28.808594 14 55 32.835937 77.441406 55.6875 2.0625 2.316406 5.21875 3.335937 8.246094 2.652344 3.027344-.679688 5.449219-2.949219 6.320313-5.925782.871093-2.980468.058593-6.195312-2.125-8.402344-23.933594-24.433593-51.90625-44.558593-82.679688-59.492187 1.292969-4.246094 2.101563-8.621094 2.40625-13.046875 1.09375.238281 2.152344.519531 3.226563.777344 1.886718.449218 3.761718.851562 5.625 1.40625 1.472656.410156 2.90625.851562 4.359375 1.324218 1.449219.46875 3.0625.929688 4.574219 1.441407 1.707031.570312 3.320312 1.183593 4.957031 1.800781 1.1875.433594 2.363281.851562 3.53125 1.339844 1.890625.753906 3.75 1.535156 5.582031 2.335937.785156.34375 1.5625.691407 2.328125 1.042969 2.152344.980469 4.269531 1.96875 6.359375 3.011719l.613281.316406c20.433594 10.507813 39.171875 24.027344 55.585938 40.105469h.050781c8.683594 8.445312 16.675781 17.578125 23.894531 27.308594 14.199219 19.472656 18.371094 32.714843 17.707031 36.894531zm-60.390625-267.691406c22.867187-7.550782 36.804687-7.441407 40.59375-5.503907 29.121094 14.832031 44.191406 61.160157 49.140625 76.390625 4.960938 15.222656 20.027344 61.550782 5.179688 90.667969-3.054688 5.972656-26.539063 20.136719-67.410157 26.792969-.324219-.304688-.753906-.664063-1.09375-.988282-2.046875-1.898437-4.144531-3.789062-6.289062-5.667968l-1.65625-1.441406c-2.980469-2.546876-6.046875-5.058594-9.199219-7.535157l-.144531-.117187c-2.160157-1.707032-4.378907-3.328125-6.621094-4.96875 6.117187-.671875 12.175781-1.441406 17.917969-2.558594 4.578125-.9375 7.554687-5.378906 6.671875-9.96875-.878907-4.589844-5.289063-7.617188-9.886719-6.789062-12.855469 2.367187-25.886719 3.640624-38.957031 3.804687-2.328125-1.289063-4.691407-2.519531-7.082031-3.730469l-.851563-.46875c-4.574219-2.285156-9.257813-4.386718-14.019531-6.339844-1.027344-.417968-2.066406-.8125-3.109375-1.21875-4.460938-1.707031-8.992188-3.347656-13.652344-4.753906-.578125-.179687-1.132813-.386718-1.707031-.554687-3.328125-.980469-6.707032-1.835938-10.101563-2.621094l83.363281-27.066406c3.035157-.828125 5.371094-3.257813 6.074219-6.324219s-.335937-6.273438-2.707031-8.34375c-2.375-2.066406-5.691406-2.660156-8.632812-1.546875l-89.917969 29.210937c-1.972657-4.003906-4.390625-7.769531-7.210938-11.230468 22.21875-23.007813 48.210938-42.039063 76.851563-56.269532 4.183594-2.046874 5.953125-7.066406 3.976562-11.28125-1.972656-4.21875-6.960937-6.074218-11.210937-4.171874-30.632813 15.183593-58.417969 35.535156-82.132813 60.160156-3.53125-2.421875-7.308594-4.460938-11.273437-6.074219 19.910156-32.011719 48.160156-57.996094 81.722656-75.164063 10.722656-5.664062 21.882813-10.453124 33.375-14.328124zm0 0"/></svg>