<?xml version="1.0" encoding="UTF-8"?>
<svg width="102.5" height="102.5"  xmlns="http://www.w3.org/2000/svg" xmlns:xlink="http://www.w3.org/1999/xlink" viewBox="0 0 58 58" version="1.1"><!-- Generator: Sketch 51.3 (57544) - http://www.bohemiancoding.com/sketch --><title>022 - Furnace</title><desc>Created with Sketch.</desc><defs/><g id="Page-1" stroke="none" stroke-width="1" fill="none" fill-rule="evenodd"><g id="022---Furnace" fill-rule="nonzero"><path d="M31,50 L51,50 C51.5522847,50 52,50.4477153 52,51 L52,55 L30,55 L30,51 C30,50.4477153 30.4477153,50 31,50 Z" id="Shape" fill="#8697CB"/><path d="M9.154,0.439 C10.0430452,1.72506311 10.7328192,3.13798737 11.2,4.63 C10.641,4.765 10.234,6.551 9.531,6.547 C8.776,6.547 7.715,4.735 6.84,4.447 C6.4911889,3.70877481 6.07261911,3.00557757 5.59,2.347 C5.402,2.08033333 5.218,1.824 5.038,1.578 C4.82221426,1.27335123 4.79409633,0.873870316 4.9650798,0.541998337 C5.13606327,0.210126358 5.47767296,0.0011324946 5.851,8.90712319e-17 L8.32,8.90712319e-17 C8.65346253,-0.000470744509 8.96562191,0.163843364 9.154,0.439 Z" id="Shape" fill="#35495E"/><path d="M22.78,25.05 C19.2934545,28.5412432 13.9087385,29.283785 9.60741485,26.8664738 C5.30609124,24.4491625 3.14060326,19.4634632 4.31,14.67 C4.57782168,13.4082943 5.10571689,12.2162728 5.86,11.17 C6.55170505,10.4684662 7.09575706,9.63538658 7.46,8.72 C8.1,8.83 8.613,7.281 9.203,7.281 C10.003,7.281 10.85,8.79 11.54,8.66 C11.53,8.76 11.52,8.86 11.5,8.96 C11.330541,9.96098162 10.9816018,10.9231054 10.47,11.8 C10.0699603,12.4055412 9.62539861,12.9804631 9.14,13.52 C8.75195921,14.0376523 8.4668079,14.6249282 8.3,15.25 C7.37556362,18.3212496 8.65668673,21.6278623 11.4090575,23.2745596 C14.1614282,24.921257 17.6808224,24.4867135 19.95,22.22 L22.542,22.52 L22.78,25.05 Z" id="Shape" fill="#35495E"/><rect id="Rectangle-path" fill="#556080" x="24" y="54" width="34" height="4" rx="1"/><path d="M39.685,50 C40.9190829,50.0441672 42.1539906,49.9394116 43.363,49.688 C44.4638637,49.4351273 45.5095501,48.98412 46.449,48.357 C49.423,46.318 51.699,42.804 51.157,39.091 C50.9247834,37.5261566 50.3103153,36.042709 49.368,34.772 C49.414,34.835 49.249,35.28 49.228,35.366 C49.176,35.575 49.12,35.784 49.061,35.991 C48.9432605,36.4043814 48.802031,36.8107084 48.638,37.208 C47.9686986,38.7440401 46.7563119,39.9792147 45.233,40.677 C46.364,37.058 46.909,32.563 44.612,29.265 C44.4411954,29.0215572 44.2569075,28.7878588 44.06,28.565 C41.6213113,25.9175123 38.4413981,24.0663672 34.935,23.253 C35.235,23.31 35.83,24.197 36.043,24.444 C36.4661621,24.9311752 36.8595436,25.4434393 37.221,25.978 C37.9319217,26.989118 38.3859962,28.1581109 38.544,29.384 C38.5848589,30.6696869 38.2655092,31.9411974 37.622,33.055 C37.286549,33.8122021 36.9027572,34.5470514 36.473,35.255 C36.46,35.275 36.448,35.295 36.435,35.314 C36.4268176,34.4845535 36.3461776,33.6574081 36.194,32.842 C35.973,31.601 35.569,29.667 34.474,28.883 C34.4314175,29.924032 34.2901172,30.9586721 34.052,31.973 C33.671286,33.1604273 33.0813373,34.2702217 32.31,35.25 C30.9507094,36.8399308 30.140591,38.8259483 30,40.913 C29.96,46.055 34.763,50 39.685,50 Z" id="Shape" fill="#F3D55B"/><path d="M43.664,50 C43.664,50 44.851,46.042 42.685,43.708 C40.519,41.374 40.018,39.125 40.685,38.042 C40.685,38.042 36.345,41.624 36.393,46.083 C36.435,50 39.6,50 39.6,50" id="Shape" fill="#F18D46"/><path d="M24.19,17.98 C26.4928529,15.6796858 26.9062755,12.0955759 25.1876071,9.33138418 C23.4689387,6.56719246 20.0717332,5.352385 16.99,6.4 C16.0975356,6.7903948 15.2263212,7.22767097 14.38,7.71 C13.4772599,8.14535262 12.5229931,8.46456161 11.54,8.66 C10.8014829,8.79946652 10.0515706,8.86977079 9.3,8.87 C8.6835047,8.87273561 8.06791212,8.82255143 7.46,8.72 C5.58734726,8.40506784 3.80395437,7.69239267 2.23,6.63 C1.587,6.209 0.988,5.801 0.43,5.415 C0.160997919,5.23090127 0.000112326583,4.92596695 0,4.6 L0,2.145 C0.000496074405,1.77114526 0.20948812,1.42878948 0.541786419,1.25748434 C0.874084718,1.0861792 1.2741859,1.11453759 1.579,1.331 C2.411,1.931 3.358,2.589 4.43,3.29 C5.17417315,3.7891473 5.98565819,4.17973761 6.84,4.45 C8.24801828,4.91592032 9.75836819,4.97827422 11.2,4.63 C12.61,4.3 13.68,3.42 14.99,2.88 C16.1551714,2.39018458 17.397449,2.10923352 18.66,2.05 C21.2248826,1.91834484 23.7558341,2.68187213 25.82,4.21 C26.2429693,4.52924095 26.6438826,4.87669912 27.02,5.25 C31.30993,9.54960853 31.30993,16.5103915 27.02,20.81 L24.354,20.6 L24.19,17.98 Z" id="Shape" fill="#2C3E50"/><path d="M31.263,26.467 L28.437,29.293 C28.0465001,29.6833819 27.4134999,29.6833819 27.023,29.293 L22.78,25.05 L19.95,22.22 L16.41,18.688 C16.2219166,18.5003915 16.1162124,18.2456545 16.1162124,17.98 C16.1162124,17.7143455 16.2219166,17.4596085 16.41,17.272 L19.243,14.445 C19.6333851,14.0552841 20.2656149,14.0552841 20.656,14.445 L27.02,20.81 L31.263,25.053 C31.6533819,25.4434999 31.6533819,26.0765001 31.263,26.467 Z" id="Shape" fill="#F18D46"/><circle id="Oval" fill="#FAC176" cx="23" cy="45" r="2"/><circle id="Oval" fill="#F3D55B" cx="17" cy="40" r="1"/><circle id="Oval" fill="#F3D55B" cx="20" cy="35" r="1"/><circle id="Oval" fill="#FAC176" cx="53" cy="25" r="2"/><circle id="Oval" fill="#F3D55B" cx="45" cy="16" r="1"/><circle id="Oval" fill="#F3D55B" cx="50" cy="7" r="1"/><circle id="Oval" fill="#F3D55B" cx="54" cy="16" r="1"/></g></g></svg>
