<?xml version="1.0" encoding="UTF-8"?>
<svg width="102.5" height="102.5" xmlns="http://www.w3.org/2000/svg" xmlns:xlink="http://www.w3.org/1999/xlink" viewBox="0 0 60 60" version="1.1"><!-- Generator: Sketch 51.3 (57544) - http://www.bohemiancoding.com/sketch --><title>022 - Furnace</title><desc>Created with Sketch.</desc><defs/><g id="Page-1" stroke="none" stroke-width="1" fill="none" fill-rule="evenodd"><g id="022---Furnace" fill="#000000" fill-rule="nonzero"><path d="M58,54 L54,54 L54,52 C54,50.8954305 53.1045695,50 52,50 L48.264,50 C51.764,47.481 53.675,43.568 53.147,39.947 C52.8936771,38.2200711 52.2161298,36.5828942 51.175,35.182 C50.9178574,34.8390845 50.4707746,34.6981763 50.0634781,34.831679 C49.6561817,34.9651818 49.379258,35.3434032 49.375,35.772 C49.358,35.832 49.334,35.899 49.318,35.95 C49.292,36.029 49.273,36.093 49.264,36.127 C49.215,36.327 49.164,36.52 49.107,36.716 C49.0006616,37.0921615 48.8724433,37.4617909 48.723,37.823 C48.5164118,38.3141937 48.237306,38.7716171 47.895,39.18 C48.467,36.093 48.422,32.543 46.439,29.695 C46.2463529,29.4195236 46.0383575,29.1551057 45.816,28.903 C43.2308042,26.0898058 39.8537065,24.1261661 36.13,23.271 C35.6297632,23.177096 35.1388004,23.4739068 34.9894962,23.9604899 C34.8401921,24.447073 35.0801857,24.968172 35.547,25.171 C35.7250431,25.3668317 35.8919715,25.5724875 36.047,25.787 C36.147,25.917 36.231,26.028 36.291,26.097 C36.688201,26.5537925 37.0572172,27.0343485 37.396,27.536 C38.0118182,28.4118511 38.4092075,29.4222966 38.555,30.483 C38.6005634,31.3286151 38.4233219,32.1713739 38.041,32.927 C37.8681429,31.4455086 37.1656587,30.0764103 36.063,29.072 C35.774738,28.8649822 35.3983487,28.826256 35.0739726,28.9702404 C34.7495965,29.1142247 34.5258346,29.4193464 34.486,29.772 C34.451,30.085 34.426,30.394 34.402,30.7 C34.3746344,31.3702932 34.2740362,32.0355824 34.102,32.684 C33.757471,33.7590105 33.2219004,34.7630783 32.521,35.648 C31.0146191,37.3991755 30.1284362,39.5986386 30,41.905 C30.0046344,44.4643184 31.0373016,46.9144709 32.866,48.705 C33.3441386,49.1831609 33.8649707,49.6166298 34.422,50 L32,50 C30.8954305,50 30,50.8954305 30,52 L30,54 L26,54 C24.8954305,54 24,54.8954305 24,56 L24,58 C24,59.1045695 24.8954305,60 26,60 L58,60 C59.1045695,60 60,59.1045695 60,58 L60,56 C60,54.8954305 59.1045695,54 58,54 Z M38.393,47.073 C38.5039444,45.0441634 39.2939538,43.1115814 40.636,41.586 C41.1119957,43.0109089 41.9036955,44.3098983 42.952,45.386 C44.123,46.647 44.065,48.599 43.897,49.756 C42.8379905,49.9508144 41.7612855,50.0326064 40.685,50 C40.585,50 40.492,49.988 40.396,49.985 C39.838,49.914 38.419,49.5 38.393,47.073 Z M32,41.921 C32.1301343,40.0494177 32.867455,38.2714214 34.1,36.857 C34.9461504,35.7834297 35.5915031,34.5658983 36.005,33.263 C36.016,33.228 36.026,33.191 36.037,33.156 C36.114,33.501 36.168,33.807 36.205,34.015 C36.3479452,34.7735115 36.4235728,35.5431724 36.431,36.315 C36.4313196,36.7541905 36.7181624,37.1417694 37.1380903,37.2704125 C37.5580181,37.3990556 38.0127336,37.23865 38.259,36.875 C38.266,36.866 38.309,36.798 38.315,36.789 C38.7691623,36.0448187 39.1737084,35.2714709 39.526,34.474 C40.245308,33.1993811 40.5947406,31.7493572 40.535,30.287 C40.3624217,28.8965592 39.8518781,27.5695578 39.048,26.422 L39.014,26.372 C41.0245876,27.2799122 42.8264202,28.5925641 44.307,30.228 C44.4783493,30.4224892 44.6386034,30.6264792 44.787,30.839 C46.945,33.939 46.243,38.282 45.274,41.381 C45.150815,41.7643362 45.2695499,42.1841613 45.575259,42.4461978 C45.8809682,42.7082342 46.3140137,42.7613637 46.674,42.581 C48.4158884,41.7785452 49.7998423,40.3607581 50.56,38.6 C50.595,38.516 50.629,38.432 50.66,38.345 C50.9013984,38.954897 51.0708756,39.5908558 51.165,40.24 C51.69,43.84 49.186,46.956 46.882,48.54 C46.5912401,48.73417 46.2871529,48.9076 45.972,49.059 C46.1501894,47.2430467 45.5889,45.4319241 44.415,44.035 C42.515,41.99 42.171,40.163 42.534,39.572 C42.788216,39.1555841 42.7048317,38.6165044 42.3366846,38.296355 C41.9685375,37.9762055 41.4231022,37.9684488 41.046,38.278 C40.853,38.436 36.339,42.221 36.391,47.101 C36.3901717,47.7516435 36.4879485,48.3986557 36.681,49.02 C35.793457,48.5803024 34.9829682,47.9997898 34.281,47.301 C32.8290656,45.8867295 32.0070348,43.9478756 32,41.921 Z M32,52 L52,52 L52,54 L32,54 L32,52 Z M26,58 L26,56 L58,56 L58,58 L26,58 Z" id="Shape"/><path d="M27.316,31 C28.0969997,31.7807639 29.3630003,31.7807639 30.144,31 L32.97,28.174 C33.7507639,27.3930003 33.7507639,26.1269997 32.97,25.346 L29.4,21.774 C33.4232631,17.0096673 33.1317837,9.95899453 28.729,5.543 C28.3194353,5.13516275 27.8820505,4.75625179 27.42,4.409 C25.1718008,2.74288193 22.4146905,1.90938628 19.62,2.051 C18.2440331,2.11282545 16.8898442,2.41751796 15.62,2.951 C15.0846023,3.18189012 14.5630585,3.44366372 14.058,3.735 C13.643,3.964 13.241,4.181 12.829,4.358 C12.3477509,3.13232166 11.7284238,1.96546371 10.983,0.88 C10.6098658,0.327959652 9.98631352,-0.00200184302 9.32,5.15072265e-16 L6.852,5.15072265e-16 C6.09904216,-0.00233361546 5.40898144,0.419671007 5.068,1.091 C4.79257885,1.63676819 4.78556218,2.27934772 5.049,2.831 C4.4,2.393 3.765,1.955 3.166,1.521 C2.55682099,1.08387552 1.75432019,1.02419524 1.08718391,1.36640286 C0.420047619,1.70861048 0.000353953355,2.39521553 0,3.145 L0,5.6 C0.00140387774,6.25409361 0.322565178,6.86616729 0.86,7.239 C1.427,7.628 2.032,8.039 2.681,8.465 C4.00007678,9.34306564 5.452018,10.0028547 6.981,10.419 C6.81,10.655 6.619,10.89 6.418,11.131 C6.303,11.27 6.188,11.407 6.076,11.548 C5.23368702,12.7090492 4.64153106,14.0322913 4.337,15.434 C3.11372865,20.47821 5.27213754,25.7371341 9.68633927,28.4675682 C14.100541,31.1980022 19.7698526,30.780967 23.737,27.434 L27.316,31 Z M12.332,13.306 C12.8389552,12.4312736 13.2022413,11.4808551 13.408,10.491 C14.230932,10.2747463 15.0317713,9.98179711 15.8,9.616 C16.168,9.445 16.523,9.247 16.878,9.047 C17.3345723,8.77147039 17.814808,8.53720909 18.313,8.347 C20.1452748,7.72785635 22.1635791,8.02879658 23.7355342,9.15552955 C25.3074892,10.2822625 26.2407852,12.096946 26.243,14.031 C26.2431274,15.2754628 25.853182,16.4886649 25.128,17.5 L22.363,14.735 C21.5807555,13.9581935 20.3182445,13.9581935 19.536,14.735 L16.7,17.564 C16.3238332,17.9392171 16.1124249,18.448691 16.1124249,18.98 C16.1124249,19.511309 16.3238332,20.0207829 16.7,20.396 L19.47,23.16 C18.4583874,23.8853811 17.2448043,24.2753365 16,24.275 L15.994,24.275 C14.4039024,24.2771193 12.8791353,23.64258 11.76,22.513 C10.1793144,20.9563559 9.60048011,18.647193 10.26,16.529 C10.390344,16.0275667 10.6161302,15.555962 10.925,15.14 C11.056,14.974 11.193,14.813 11.325,14.652 C11.7018381,14.2356615 12.0389687,13.785038 12.332,13.306 Z M28.732,29.586 L24.5,25.354 L24.492,25.343 L21.662,22.513 C21.662,22.508 21.65,22.506 21.645,22.501 L18.116,18.98 L20.949,16.153 L24.482,19.686 L27.312,22.516 L31.553,26.756 L28.732,29.586 Z M9.329,2 C9.9327834,2.88568336 10.4441261,3.83096362 10.855,4.821 C10.773,4.828 10.691,4.821 10.609,4.828 C10.3587505,4.83999689 10.1080259,4.83799377 9.858,4.822 C9.724,4.812 9.589,4.794 9.458,4.776 C9.22872202,4.74707484 9.00108686,4.70635418 8.776,4.654 C8.697,4.636 8.617,4.615 8.538,4.593 C8.20428191,3.95802076 7.82390415,3.34868098 7.4,2.77 L6.852,2 L9.329,2 Z M2,5.6 L1.993,3.141 C2.9,3.8 3.874,4.467 4.878,5.124 C5.69765821,5.67244929 6.5908611,6.10204857 7.531,6.4 C7.96230429,6.53883135 8.4031335,6.64611428 8.85,6.721 C8.989,6.744 9.128,6.75 9.267,6.767 C9.56917186,6.80750444 9.87325242,6.83220473 10.178,6.841 C10.231,6.841 10.284,6.853 10.336,6.853 C10.523,6.853 10.71,6.832 10.897,6.82 C11.029,6.811 11.16,6.811 11.292,6.796 C11.667024,6.75662444 12.039126,6.69316002 12.406,6.606 L12.428,6.606 L12.438,6.606 C13.3452976,6.35729509 14.2128813,5.98157781 15.015,5.49 C15.4564024,5.23466762 15.9117849,5.0043055 16.379,4.8 C17.4366671,4.35477209 18.5646607,4.09985637 19.711,4.047 C22.0392869,3.92515951 24.3373967,4.61742089 26.211,6.005 C26.5988071,6.29668998 26.9663221,6.61442347 27.311,6.956 C30.9355078,10.5906082 31.2256913,16.3770069 27.983,20.356 L26.559,18.932 C29.0346897,15.7501263 28.7521063,11.2223595 25.9,8.373 C23.7422945,6.22336789 20.553848,5.48009423 17.668,6.454 C17.0539042,6.68102972 16.4620628,6.96422982 15.9,7.3 C15.589,7.475 15.279,7.649 14.957,7.8 C14.1312536,8.20104091 13.257448,8.49443795 12.357,8.673 C11.440782,8.84596512 10.5063325,8.90207914 9.576,8.84 C9.25559485,8.81940107 8.93649013,8.78201642 8.62,8.728 C6.8871447,8.43317584 5.23710366,7.77213667 3.78,6.789 C3.142,6.377 2.549,5.973 2,5.6 Z M8.927,25.343 C6.46299229,22.8716491 5.46117575,19.2969253 6.282,15.905 C6.51931491,14.7884101 6.98172658,13.7319066 7.641,12.8 L7.956,12.416 C8.3925479,11.9257638 8.77415147,11.3892386 9.094,10.816 C9.14,10.816 9.194,10.816 9.235,10.824 C9.393,10.837 9.555,10.842 9.716,10.849 C9.916,10.859 10.116,10.868 10.316,10.868 C10.487,10.868 10.659,10.858 10.831,10.851 C10.973,10.845 11.114,10.851 11.256,10.837 C11.091322,11.3471234 10.8713476,11.8377066 10.6,12.3 C10.3656542,12.6741093 10.0978929,13.0262155 9.8,13.352 C9.647,13.532 9.5,13.712 9.348,13.899 C8.88147126,14.5122946 8.53814866,15.2101462 8.337,15.954 C7.46849201,18.7752219 8.23910808,21.8453564 10.337,23.922 C11.8302034,25.42817 13.8641051,26.2740686 15.985,26.271 L16,26.271 C17.7749774,26.2750858 19.5001385,25.6843061 20.9,24.593 L22.324,26.016 C18.34342,29.2509718 12.5633398,28.9606088 8.927,25.343 Z" id="Shape"/><path d="M27,46 C27,44.3431458 25.6568542,43 24,43 C22.3431458,43 21,44.3431458 21,46 C21,47.6568542 22.3431458,49 24,49 C25.6568542,49 27,47.6568542 27,46 Z M23,46 C23,45.4477153 23.4477153,45 24,45 C24.5522847,45 25,45.4477153 25,46 C25,46.5522847 24.5522847,47 24,47 C23.4477153,47 23,46.5522847 23,46 Z" id="Shape"/><circle id="Oval" cx="18" cy="41" r="1"/><circle id="Oval" cx="21" cy="36" r="1"/><path d="M51,26 C51,27.6568542 52.3431458,29 54,29 C55.6568542,29 57,27.6568542 57,26 C57,24.3431458 55.6568542,23 54,23 C52.3431458,23 51,24.3431458 51,26 Z M55,26 C55,26.5522847 54.5522847,27 54,27 C53.4477153,27 53,26.5522847 53,26 C53,25.4477153 53.4477153,25 54,25 C54.5522847,25 55,25.4477153 55,26 Z" id="Shape"/><circle id="Oval" cx="46" cy="17" r="1"/><circle id="Oval" cx="51" cy="8" r="1"/><circle id="Oval" cx="55" cy="17" r="1"/></g></g></svg>
