<svg id="Capa_1" enable-background="new 0 0 512 512" height="102.5" viewBox="0 0 512 512" width="102.5" xmlns="http://www.w3.org/2000/svg"><g><path d="m174.741 106.392-61.025-43.594c-2.534-1.817-5.596-2.798-8.716-2.798h-90c-8.291 0-15 6.709-15 15s6.709 15 15 15c24.814 0 45 20.186 45 45v30c0 8.291 6.709 15 15 15 19.087 0 36.152 12.1 42.48 30.088 2.168 6.182 7.954 10.034 14.15 10.034l74.15-19.966z" fill="#2d4d59"/><path d="m497 60h-90c-3.12 0-6.182.981-8.716 2.798l-61.025 43.594-65.259 95.269 108.37 18.461c6.196 0 11.982-3.853 14.15-10.034 6.328-17.988 23.393-30.088 42.48-30.088 8.291 0 15-6.709 15-15v-30c0-24.814 20.186-45 45-45 8.291 0 15-6.709 15-15s-6.709-15-15-15z" fill="#1a2c33"/><g><path d="m187.592 60h-21.592c-24.814 0-45-20.186-45-45 0-8.291 6.709-15 15-15s15 6.709 15 15c0 8.276 6.724 15 15 15h21.592c8.291 0 15 6.709 15 15s-6.709 15-15 15z" fill="#407080"/></g><g><path d="m346 60h-22.969c-8.291 0-15-6.709-15-15s6.709-15 15-15h22.969c8.276 0 15-6.724 15-15 0-8.291 6.709-15 15-15s15 6.709 15 15c0 24.814-20.186 45-45 45z" fill="#2d4d59"/></g><path d="m421 330c0 30.899-12.599 67.2-21.899 90h6.899c8.401 0 15 6.599 15 15v62c0 8.399-6.599 15-15 15h-75l-30-30v-122h-15c-11.4 0-21.899-4.501-30-11.4-8.101 6.899-18.6 11.4-30 11.4h-15v122l-30 30h-75c-8.401 0-15-6.601-15-15v-62c0-8.401 6.599-15 15-15h6.899c-9.3-22.8-21.899-59.101-21.899-90 0-13.801 2.999-27.001 9-39.3-6-11.1-9-23.101-9-35.7 0-41.4 33.6-75 75-75h180c41.4 0 75 33.6 75 75 0 12.599-2.999 24.6-9 35.7 6.001 12.299 9 25.499 9 39.3z" fill="#407080"/><path d="m421 330c0 30.899-12.599 67.2-21.899 90h6.899c8.401 0 15 6.599 15 15v62c0 8.399-6.599 15-15 15h-75l-30-30v-122h-15c-11.4 0-21.899-4.501-30-11.4v-168.6h90c41.4 0 75 33.6 75 75 0 12.599-2.999 24.6-9 35.7 6.001 12.299 9 25.499 9 39.3z" fill="#2d4d59"/><g><g><g><g><path d="m315.399 18.6c-17.699-12.301-38.098-18.6-59.399-18.6-13.2 0-27.001 2.399-40.201 7.5-40.799 15.599-66.899 56.4-64.799 101.999 1.199 22.5 10.8 39.6 30 53.401v32.1c0 41.4 33.6 75 75 75s75-33.6 75-75v-32.1c26.7-18.9 30-42.001 30-57.9 0-34.501-17.1-66.901-45.601-86.4z" fill="#5c8a99"/></g></g></g></g><path d="m331 414.3v97.7h-150v-97.7l32.999-17.1 42.001 21 37.8-18.9z" fill="#fc9"/><path d="m256 270v-270c21.301 0 41.7 6.299 59.399 18.6 28.501 19.499 45.601 51.899 45.601 86.4 0 15.899-3.3 39-30 57.9v32.1c0 41.4-33.6 75-75 75z" fill="#407080"/><path d="m331 414.3v97.7h-75v-93.8l37.8-18.9z" fill="#ff9680"/><path d="m361 315c0 19.499-12.599 36-30 42.299v57.001l-68.401 34.2c-2.098.899-4.199 1.5-6.599 1.5s-4.501-.601-6.599-1.5l-68.401-34.2v-57.001c-17.401-6.299-30-22.8-30-42.299 0-8.401 6.599-15 15-15s15 6.599 15 15c0 8.399 6.599 15 15 15h30c8.401 0 15-6.601 15-15 0-8.401 6.599-15 15-15s15 6.599 15 15c0 8.399 6.599 15 15 15h30c8.401 0 15-6.601 15-15 0-8.401 6.599-15 15-15s15 6.599 15 15z" fill="#2d4d59"/><path d="m361 315c0 19.499-12.599 36-30 42.299v57.001l-68.401 34.2c-2.098.899-4.199 1.5-6.599 1.5v-150c8.401 0 15 6.599 15 15 0 8.399 6.599 15 15 15h30c8.401 0 15-6.601 15-15 0-8.401 6.599-15 15-15s15 6.599 15 15z" fill="#1a2c33"/></g></svg>