<svg id="Capa_1" enable-background="new 0 0 512 512" viewBox="0 0 512 512" xmlns="http://www.w3.org/2000/svg"><g><path d="m465.533 118.618v-10.102h-.006c0-.855-.14-1.714-.438-2.541l-36.366-101.016c-1.071-2.975-3.894-4.959-7.056-4.959h-331.334c-3.163 0-5.985 1.984-7.057 4.959l-36.365 101.017c-.297.826-.438 1.686-.438 2.541h-.006v10.102c0 14.247 6.259 27.054 16.163 35.837v43.615c0 4.142 3.358 7.5 7.5 7.5s7.5-3.358 7.5-7.5v-34.571c5.215 1.952 10.856 3.026 16.744 3.026.195 0 .387-.012.581-.015v127.45h-17.325v-60.89c0-4.142-3.358-7.5-7.5-7.5s-7.5 3.358-7.5 7.5v60.89h-8.66c-4.142 0-7.5 3.358-7.5 7.5v32.32c0 4.142 3.358 7.5 7.5 7.5h8.66v163.219c0 4.142 3.358 7.5 7.5 7.5h371.74c4.142 0 7.5-3.358 7.5-7.5v-85.86c0-4.142-3.358-7.5-7.5-7.5s-7.5 3.358-7.5 7.5v78.36h-49.65v-155.72h49.65v42.36c0 4.142 3.358 7.5 7.5 7.5s7.5-3.358 7.5-7.5v-42.36h8.66c4.142 0 7.5-3.358 7.5-7.5v-32.32c0-4.142-3.358-7.5-7.5-7.5h-8.66v-139.505c9.904-8.783 16.163-21.59 16.163-35.837zm-47.907 32.906c-18.145 0-32.906-14.762-32.906-32.907v-2.602h65.813v2.602c0 18.146-14.762 32.907-32.907 32.907zm-47.906-50.508h-65.813v-86.016h65.813zm-80.813 0h-65.813v-86.016h65.813zm-80.814 0h-65.813v-86.016h65.813zm-65.813 15h65.813v2.602c0 18.145-14.762 32.907-32.906 32.907-18.145 0-32.907-14.762-32.907-32.907zm80.813 0h65.813v2.602c0 18.145-14.762 32.907-32.907 32.907s-32.907-14.762-32.907-32.907v-2.602zm80.814 0h65.813v2.602c0 18.145-14.762 32.907-32.907 32.907s-32.906-14.762-32.906-32.907zm143.454-15h-62.641v-86.016h31.676zm-351.757-86.016h31.676v86.016h-62.641zm-34.137 103.618v-2.602h65.813v2.602c0 18.145-14.762 32.907-32.906 32.907-18.145-.001-32.907-14.762-32.907-32.907zm48.488 45.291c10.32-3.56 19.048-10.549 24.825-19.604 8.513 13.344 23.438 22.22 40.407 22.22 16.968 0 31.893-8.875 40.406-22.22 8.513 13.344 23.438 22.22 40.407 22.22s31.893-8.875 40.407-22.22c8.513 13.344 23.438 22.22 40.406 22.22 16.969 0 31.893-8.875 40.407-22.22 5.777 9.055 14.505 16.044 24.825 19.604v130.051h-17.325v-38.97c0-4.142-3.358-7.5-7.5-7.5h-242.44c-4.142 0-7.5 3.358-7.5 7.5v38.97h-17.325zm-32.325 177.371h49.651v155.72h-49.651zm211.277 121.222v34.498h-65.813v-34.498zm-99.578-15c-1.435 0-2.602-1.167-2.602-2.602v-52.528c0-1.435 1.167-2.602 2.602-2.602h133.342c1.435 0 2.602 1.167 2.602 2.602v52.528c0 1.435-1.167 2.602-2.602 2.602zm33.765-72.731v-33.491h65.813v33.491zm-15 0h-18.765c-9.706 0-17.602 7.896-17.602 17.602v52.527c0 9.706 7.896 17.602 17.602 17.602h18.765v34.498h-65.812v-155.72h65.812zm161.626 122.229h-65.813v-34.498h18.764c9.706 0 17.602-7.896 17.602-17.602v-52.528c0-9.706-7.896-17.602-17.602-17.602h-18.764v-33.49h65.813zm80.81-170.72h-389.06v-17.32h257.84c4.142 0 7.5-3.358 7.5-7.5s-3.358-7.5-7.5-7.5h-177.03v-31.47h227.44v31.47h-15.41c-4.142 0-7.5 3.358-7.5 7.5s3.358 7.5 7.5 7.5h96.22zm-16.16-32.32h-17.325v-127.45c.194.002.386.015.581.015 5.888 0 11.529-1.074 16.744-3.026z"/></g></svg>