<svg height="102.5" viewBox="0 0 58 47" width="102.5" xmlns="http://www.w3.org/2000/svg"><g id="Page-1" fill="none" fill-rule="evenodd"><g id="015---Rat" fill-rule="nonzero"><path id="Shape" d="m16 31c1.0935724 1.684726 2.019334 3.4726114 2.764 5.338.1439207.3938832.5166707.6575162.936.662h8.84c.3492095.0005463.6734096-.1811144.8552654-.4792353s.1950224-.6695141.0347346-.9797647c-.5638417-1.4328465-1.8950445-2.4190233-3.43-2.541-2 0-4 0-4-3 .0029729-.329957.0334113-.6590938.091-.984z" fill="#fb7b76"/><path id="Shape" d="m29 26s6 2 9 5 2 5 4 5h4.8c.3184898.0031222.6191483-.1467201.8084092-.4028955s.244152-.5875893.1475908-.8911045c-.4248341-1.2959642-1.4524757-2.304962-2.756-2.706-3-1-6-8-7-12z" fill="#fb7b76"/><path id="Shape" d="m58 8c-.0153036.33703941-.0897715.66876006-.22.98-.9 2.31-4.47 6.02-8.78 6.02-5 0-6 1-7 4-.6306791 1.6303479-1.6584233 3.0774393-2.99 4.21l-7.64 3.72h-.01c-.12.03-.24.05-.36.07-5.24.87-5.9 1.75-7.99 3.29-.28.2-.58.42-.93.65l-.91.48-3.75 1.98c-2.2894088 1.0439555-4.6781261 1.8547123-7.13 2.42l-5.87-.38c-2.95-1.43-4.42-4.86-4.42-13.44 0-10 11-16 18-16s8 2 13 1c3.34-.67 5.35-1.78 7.5-2.45l6.41-.53c2.3997982-.0420496 4.7915882.28855043 7.09.98 1.55.52 3.09 1.03 4.22 1.55h.01c1.07.48 1.77.97 1.77 1.45z" fill="#35495e"/><path id="Shape" d="m44.543 5.609c.32258-.4307466.4587611-.97294914.378-1.505-.212-1.439-1-4.104-3.921-4.104-3.154 0-3.2 5.6-1.117 7.962.4032897.42896532.9767879.6558601 1.5644016.6189288s1.1281907-.33384528 1.4745984-.8099288z" fill="#fb7b76"/><path id="Shape" d="m23.71 26.83c-.3790814 1.0196525-.6179307 2.086064-.71 3.17-.0018385.0967758.0014996.1935807.01.29-.28.2-.58.42-.93.65l-.91.48c-.1191745-.46374-.1763392-.9412337-.17-1.42.0809629-1.289014.3504964-2.5591909.8-3.77.7-2.23 1.43-4.54.31-6.78-1.82-3.63-7.46-5.45-10.11-5.45-.5522847 0-1-.4477153-1-1s.4477153-1 1-1c3 0 9.58 1.92 11.89 6.55 1.49 2.97.56 5.91-.18 8.28z" fill="#2c3e50"/><path id="Shape" d="m9.918 32.828c.076 1.713.443 4.4 1.445 5.808.363.547 2.254 1.047 2.894 1.182 8.911 1.889 30.524.076 38.38 3.908.6849953.3417254.9769036 1.1641241.6606433 1.8612426s-1.1273479 1.0191233-1.8356433.7287574c-3.078-1.3-8.758-1.388-12.128-1.4-13.249-.044-24.1 1.371-29.749-1.126-3.781-1.594-5.107-6.633-5.5-10.614-.10180458-1.0655343.38654036-2.101578 1.2732187-2.7011853.88667834-.5996074 2.0300615-.6670035 2.98104207-.175716.95098058.4912875 1.55765903 1.4627856 1.58173923 2.5329013z" fill="#fb7b76"/><path id="Shape" d="m58 8c-.0153036.33703941-.0897715.66876006-.22.98-.0767594-.01608716-.1508365-.04302428-.22-.08-.47-.23-1.52-.53-1.85-.19-.3921222.39212214-1.0278778.39212212-1.42-.00000004-.3921221-.39212215-.3921221-1.02787778 0-1.41999996.5156971-.49923157 1.2127315-.76648828 1.93-.74h.01c1.07.48 1.77.97 1.77 1.45z" fill="#fb7b76"/><path id="Shape" d="m48 9h-1c-.5522847 0-1-.44771525-1-1s.4477153-1 1-1h1c.5522847 0 1 .44771525 1 1s-.4477153 1-1 1z" fill="#2c3e50"/></g></g></svg>