<?xml version="1.0"?>
<svg xmlns="http://www.w3.org/2000/svg" id="Layer_1" data-name="Layer 1" fill="#fff" viewBox="0 0 512 512" width="102.5" height="102.5"><title>Mushroom</title><path d="M310.449,226.569a289.626,289.626,0,0,0-36.12-2.958l-37.383-.693a288.551,288.551,0,0,0-36.608,1.649L164.179,361.873a76.777,76.777,0,0,0-2.4,15.116l-1.842,31.937a70.36,70.36,0,0,0,.5,14.266A71.166,71.166,0,0,0,230.825,484h37.919a71.345,71.345,0,0,0,70.51-61.766c0-.023.006-.055.009-.078a71.083,71.083,0,0,0-.347-20.946Z"/><path d="M398.907,94.969c-67.632-60.01-114.376-66.95-143.653-66.95-36.33,0-71.054,9.918-103.206,29.478-28.8,17.518-54.36,42.334-73.924,71.765-4.749,7.145-10.265,15.607-15.165,24.195a45.8,45.8,0,0,0-1.784,42.715c7.242,15.388,22.4,26.462,40.542,29.623l.045.008a61.585,61.585,0,0,0,23.942-.61l39.043-8.858a302.328,302.328,0,0,1,66.83-7.468q2.816,0,5.629.052l37.383.695a303.032,303.032,0,0,1,52.387,5.557l54.42,10.641a60.869,60.869,0,0,0,21.66.32l6.583-1.084c18.425-3.037,33.821-14.166,41.183-29.772A45.351,45.351,0,0,0,448.94,152.6C438.134,133.983,422.235,115.669,398.907,94.969Z"/></svg>
