<svg width="102.5" height="102.5" id="Layer_1_copy" fill='#fff' viewBox="0 0 512 512" style="enable-background:new 0 0 512 512;" xmlns="http://www.w3.org/2000/svg" data-name="Layer 1 copy"><path d="m463.959 52.278c-33.24-30.564-78.938-49.424-128.678-53.1s-97.714 8.245-135.091 33.586c-37.957 25.733-60.508 62.181-63.5 102.629-2.065 27.921 30.406 46.073 58.01 56.383 20.235 7.558 44.987 13.756 72.294 18.213l-37.862 244.275a48 48 0 0 0 43.89 55.236l48.742 3.606q1.83.135 3.642.135a46.837 46.837 0 0 0 32.273-12.769 49.751 49.751 0 0 0 15.588-37.213l-1.55-245.516c27.7-.387 53.125-2.87 74.272-7.372 28.821-6.136 63.609-19.312 65.676-47.232 2.992-40.452-13.95-79.822-47.706-110.861zm-117.211 436.508a31.093 31.093 0 0 1 -23.8 8.361l-40.211-2.975 13.188-93.05-15.842-2.245-13.216 93.255a32.023 32.023 0 0 1 -21.92-35.415l37.878-244.38q10.022 1.344 20.384 2.377l-7.156 64.4 15.9 1.767 7.2-64.783.083.006c12.4.918 24.6 1.44 36.484 1.613l1.551 245.646a33.932 33.932 0 0 1 -10.523 25.423z"/><path d="m236.656 289.88c-5.5-27.912-22.605-51.757-48.155-67.141-25.3-15.232-55.9-20.336-86.149-14.369-62.752 12.373-104.615 69.072-93.313 126.391 2.2 11.154 11.936 25.364 45.83 29.713a175.006 175.006 0 0 0 22.123 1.3c6.074 0 12.429-.265 18.977-.772l9.807 110.077a40.014 40.014 0 0 0 47.577 35.657l24.439-4.819a40 40 0 0 0 30.479-51.05l-32.954-106.589a192.685 192.685 0 0 0 30.219-13.512c29.706-16.889 33.319-33.731 31.12-44.886zm-43.67 169.72a24 24 0 0 1 -18.286 30.624l-23.771 4.688-6.988-55.9-15.877 1.984 6.476 51.8a24.589 24.589 0 0 1 -3.314-2.094 23.713 23.713 0 0 1 -9.51-17.045l-9.83-110.33c6.679-.884 13.485-1.994 20.362-3.35 9.638-1.9 18.973-4.185 27.847-6.777z"/></svg>