<svg id="Layer_1" fill="#fff" enable-background="new 0 0 512 512" viewBox="0 0 512 512"  xmlns="http://www.w3.org/2000/svg"><g id="_x33_8_Pickaxe"><g><g><path d="m322.457 229.602c3.186 3.186 6.686 6.008 10.447 8.358l-261.912 261.861c-16.167 16.167-42.401 16.313-58.714 0-16.209-16.101-16.282-42.54 0-58.714l261.912-261.912c2.298 3.761 5.119 7.209 8.306 10.395z"/><path d="m336.771 49.701c-4.263 3.438-1.85 1.536-54.273 53.803-5.329 5.329-9.559 11.492-12.537 18.179-39.994-31.201-95.825-64.74-146.261-72.295-9.089-1.358-15.88-8.462-16.925-17.708-1.045-9.089 3.97-17.447 12.432-20.738 68.19-26.693 154.705-.984 217.564 38.759z"/><path d="m418.207 53.879c-3.186-3.186-6.686-6.007-10.447-8.306l3.029-3.029c16.227-16.227 42.466-16.248 58.714 0 16.578 16.688 15.905 42.966 0 58.766l-2.977 2.977c-2.298-3.709-5.066-7.209-8.306-10.447z"/><path d="m501.471 391.952c-3.148 8.081-10.548 13.773-21.26 13.059-9.089-.992-16.141-7.731-17.499-16.821-7.626-50.7-40.831-105.623-72.191-146.104 6.634-2.977 12.693-7.157 18.022-12.484 51.867-52.022 50.104-49.763 53.751-54.169 39.675 62.886 64.918 148.473 39.177 216.519z"/></g><g><path d="m443.436 165.143-49.677 49.677c-7.783 7.783-18.022 11.701-28.26 11.701s-20.477-3.917-28.26-11.701l-39.961-39.961c-15.619-15.619-15.619-41.006 0-56.571l49.625-49.625c15.567-15.619 40.953-15.619 56.519 0l40.013 39.961c15.568 15.565 15.568 40.953.001 56.519z"/></g></g></g></svg>