<svg fill="#fff" width="102.5" height="102.5" id="Layer_1" enable-background="new 0 0 511.998 511.998" viewBox="0 0 511.998 511.998" xmlns="http://www.w3.org/2000/svg"><g><path d="m465.153 111.753 4.175-4.175c17.595-17.594 17.595-46.222.003-63.813l-1.105-1.105c-17.594-17.595-46.223-17.595-63.816 0l-4.176 4.175c11.696 9.436 23.102 19.683 34.169 30.75s21.314 22.472 30.75 34.168z"/><path d="m293.581 153.487-280.376 280.376c-17.592 17.594-17.592 46.222.003 63.818l1.104 1.103c8.523 8.521 19.854 13.214 31.906 13.214 12.054 0 23.385-4.694 31.907-13.217l280.375-280.375c-9.405-10.707-19.846-21.881-31.442-33.476-11.594-11.594-22.765-22.033-33.477-31.443z"/><path d="m485.15 199.351c-16.602-35.575-40.813-69.406-71.96-100.553s-64.979-55.358-100.553-71.96c-28.672-13.38-58.51-21.864-88.685-25.217-51.852-5.761-86.883 5.653-88.349 6.141-6.979 2.327-11.241 9.372-10.063 16.633 1.179 7.262 7.45 12.597 14.807 12.597.188 0 19.737.413 54.188 15.177 33.681 14.435 87.693 45.505 153.736 111.548 64.896 64.897 95.914 118.118 110.506 151.337 15.284 34.792 16.178 55.393 16.218 56.65-.091 7.375 5.199 13.604 12.477 14.846.832.142 1.661.21 2.481.21 6.376 0 12.199-4.154 14.273-10.376.488-1.466 11.901-36.501 6.141-88.349-3.353-30.175-11.837-60.012-25.217-88.684z"/></g></svg>