<svg width="102.5" height="102.5" viewBox="0 0 64 64" xmlns="http://www.w3.org/2000/svg"><g id="Icons"><g><g><g><path d="m40.615 46.757 5.657-5.657-31.048-31.048-.001-.001c-1.71-1.71-2.819-3.481-3.649-5.476-.31-.746-1.309-.851-1.767-.185-2.681 3.895-2.291 9.268 1.174 12.733z" fill="#e4e4e4"/></g></g><g><g><path d="m46.27 41.1-5.65 5.66-29.64-29.64c-3.46-3.46-3.85-8.83-1.17-12.73.46-.67 1.45-.56 1.76.19.84 1.99 1.95 3.76 3.65 5.47z" fill="#d2d2d2"/></g></g><g><g><path d="m37.18 32.01-5.65 5.66-5.66-5.66 5.66-5.65z" fill="#b4b4b4"/></g></g><g><g><path d="m46.937 41.85-.665-.75-2.121-2.121c-4.646 4.646-4.982 4.911-5.593 5.721l2.058 2.058.99.877c.276-.573.658-1.11 1.131-1.584z" fill="#b4b4b4"/></g></g><g><g><path d="m46.937 41.85-.665-.75-5.657 5.657.99.877c1.809 1.596 11.031 9.73 11.031 9.73-.375.375-.389.983-.035 1.365.007.021.021.035.035.049.389.389 1.025.389 1.414 0l4.243-4.243c.389-.389.389-1.025 0-1.414s-1.025-.389-1.414 0c0 0-2.891-3.28-9.942-11.271z" fill="#0b5078"/></g></g><g><g><path d="m52.601 58.729c.007.021.021.035.035.049.389.389 1.025.389 1.414 0l4.243-4.243c.389-.389.389-1.025 0-1.414s-1.025-.389-1.414 0l-10.607-12.021-5.657 5.657 12.021 10.607c-.375.375-.389.983-.035 1.365z" fill="#c80b51"/></g></g><g><g><path d="m54.892 50.866-3.493 3.493c-.346.346-.735.651-1.146.905l1.633 1.435 4.327-4.327z" fill="#a00027"/></g></g><g><g><path d="m45.444 34.225.586.195c1.41.47 1.833 2.26.782 3.312l-6.686 6.686c-3.39 3.39-3.791 8.907-.628 12.509 3.466 3.947 9.483 4.092 13.138.437l7.071-7.071c.391-.391.391-1.024 0-1.414-.391-.391-1.024-.391-1.414 0l-6.186 6.186c-2.323 2.323-6.139 2.559-8.531.306-2.475-2.331-2.519-6.227-.132-8.614l5.657-5.657c2.343-2.343 2.343-6.142 0-8.485-.781-.781-2.047-.781-2.828 0l-.977.977c-.202.201-.121.543.148.633z" fill="#fab400"/></g></g><g><g><path d="m23.437 46.757-5.657-5.657 31.049-31.049.001-.001c1.71-1.71 2.819-3.481 3.649-5.476.31-.746 1.309-.851 1.767-.185 2.681 3.895 2.291 9.268-1.174 12.733z" fill="#e4e4e4"/></g></g><g><g><path d="m52.478 4.575c.31-.746 1.309-.85 1.767-.185 2.68 3.895 2.288 9.271-1.174 12.733l-29.634 29.634-5.657-5.657 31.049-31.049c1.708-1.708 2.818-3.479 3.649-5.476z" fill="#e4e4e4"/></g></g><g><g><path d="m17.115 41.85.665-.75 2.121-2.121c4.646 4.646 4.982 4.911 5.593 5.721l-2.058 2.058-.99.877c-.276-.573-.658-1.11-1.131-1.584z" fill="#d2d2d2"/></g></g><g><g><path d="m17.115 41.85.665-.75 5.657 5.657-.99.877c-1.809 1.596-11.031 9.73-11.031 9.73.375.375.389.983.035 1.365-.007.021-.021.035-.035.049-.389.389-1.025.389-1.414 0l-4.243-4.243c-.389-.389-.389-1.025 0-1.414s1.025-.389 1.414 0c0 0 2.891-3.28 9.942-11.271z" fill="#0b5078"/></g></g><g><g><path d="m11.451 58.729c-.007.021-.021.035-.035.049-.389.389-1.025.389-1.414 0l-4.243-4.243c-.389-.389-.389-1.025 0-1.414s1.025-.389 1.414 0l10.607-12.021 5.657 5.657-12.021 10.607c.375.375.389.983.035 1.365z" fill="#0b5078"/></g></g><g><g><path d="m9.16 50.866 3.493 3.493c.346.346.735.651 1.146.905l-1.633 1.435-4.327-4.327z" fill="#01325a"/></g></g><g><g><path d="m18.608 34.225c-1.68.56-2.183 2.692-.931 3.944l6.249 6.249c3.39 3.39 3.791 8.907.628 12.509-3.466 3.947-9.483 4.092-13.138.437l-7.071-7.071c-.391-.391-.391-1.024 0-1.414.391-.391 1.024-.391 1.414 0l6.186 6.186c2.323 2.323 6.139 2.559 8.531.306 2.475-2.331 2.519-6.227.132-8.614l-5.656-5.657c-2.343-2.343-2.343-6.142 0-8.485.781-.781 2.047-.781 2.828 0l.977.977c.201.201.12.543-.149.633z" fill="#fab400"/></g></g><g><g><g><g><path d="m32 14c.552 0 1 .448 1 1v2c0 .552-.448 1-1 1-.552 0-1-.448-1-1v-2c0-.552.448-1 1-1z" fill="#02a0c7"/></g></g></g><g><g><g><path d="m26.879 16.879c.391-.391 1.024-.391 1.414 0l1.414 1.414c.391.391.391 1.024 0 1.414-.391.391-1.024.391-1.414 0l-1.414-1.414c-.391-.391-.391-1.024 0-1.414z" fill="#02a0c7"/></g></g></g><g><g><g><path d="m37.121 16.879c-.391-.391-1.024-.391-1.414 0l-1.414 1.414c-.391.391-.391 1.024 0 1.414.391.391 1.024.391 1.414 0l1.414-1.414c.391-.391.391-1.024 0-1.414z" fill="#02a0c7"/></g></g></g></g></g></g></svg>