<?xml version="1.0" encoding="iso-8859-1"?>
<!-- Generator: Adobe Illustrator 19.0.0, SVG Export Plug-In . SVG Version: 6.00 Build 0)  -->
<svg version="1.1" id="Layer_1" xmlns="http://www.w3.org/2000/svg" xmlns:xlink="http://www.w3.org/1999/xlink" x="0px" y="0px"
	 viewBox="0 0 512 512" style="enable-background:new 0 0 512 512;" xml:space="preserve">
<g>
	<g>
		<path d="M493.985,206.459c0-20.207-21.683-43.02-31.006-51.89c-14.461-13.76-35.019-28.463-49.348-28.463
			c-10.766,0-18.497,2.278-23.82,4.884c-2.824-7.734-5.985-21.341-3.96-40.77c4.754-45.639-7.808-65.075-13.431-71.312
			c-5.837-6.477-13.389-9.901-21.841-9.901c-1.15,0-2.264,0.188-3.323,0.537C342.148,5.069,334.05,0,323.556,0
			c-4.963,0-9.162,2.619-11.521,7.185c-8.162,15.799,8.162,61.068,13.764,68.962c8.634,12.167,15.249,22.638,17.6,26.421
			c2.96,21.437,6.184,40.653,7.457,48.063c-7.716,12.207-13.122,24.818-15.596,31.067l-54.036,16.468H161.422
			c-37.683,0-73.677,11.814-101.349,33.266c-26.728,20.719-42.057,47.732-42.057,74.111c0,40.603,28.705,70.705,41.945,82.426
			l-12.418,16.558c-8.065,10.753-7.437,25.85,1.494,35.897l56.966,64.085c4.231,4.762,10.312,7.492,16.683,7.492h56.753
			c3.059,0,5.87-1.683,7.312-4.38c1.444-2.697,1.285-5.969-0.411-8.514l-13.613-20.418c-4.298-6.448-11.492-10.297-19.24-10.297
			h-15.201l-36.249-43.499c0.332-0.188,0.668-0.38,1.011-0.575c12.505-7.125,32.887-18.738,51.3-30.837
			c19.258,4.847,43.366,6.481,65.88,6.481c24.938,0,47.892-1.995,60.085-3.815c5.992,19.368,15.545,49.361,30.778,96.101
			c3.85,11.815,14.794,19.753,27.231,19.753h39.281c4.581,0,8.294-3.713,8.294-8.294c0-31.048-21.305-33.595-30.403-34.682
			c-0.218-0.025-0.435-0.052-0.647-0.077c-4.74-9.682-14.307-49.193-21.664-85.5c13.133-4.999,34.869-17.377,54.869-34.44
			c24.979-21.31,55.812-56.94,60.852-105.664c0.067-0.646,0.05-1.281-0.028-1.899C465.384,240.772,493.985,232.825,493.985,206.459z
			 M329.947,40.744c-3.445-13.065-3.854-20.486-3.565-23.897c5.36,0.985,9.512,4.546,11.721,6.854
			c-1.032,7.269-1.195,19.794,0.953,42.42C337.222,63.118,333.176,52.996,329.947,40.744z M447.027,224.906
			c-0.645,0.008-1.286,0.091-1.911,0.248c-28.728,7.185-55.75,0.142-72.278-18.835c-3.008-3.455-8.247-3.816-11.701-0.807
			c-3.455,3.009-3.815,8.247-0.806,11.702c17.3,19.864,43.322,29.402,71.773,26.913c-5.18,41.261-31.682,72.146-53.251,90.913
			c-13.827,12.03-27.718,20.927-38.264,26.646c0.975-3.714-0.743-7.73-4.314-9.517c-4.099-2.049-9.08-0.388-11.128,3.709
			l-9.007,18.015c-0.012,0.024-0.019,0.051-0.03,0.075c-0.364,0.745-0.618,1.551-0.744,2.401c-0.01,0.069-0.022,0.137-0.031,0.206
			c-0.042,0.337-0.071,0.679-0.071,1.027c0,0.052,0.007,0.103,0.008,0.155c0.001,0.077,0.008,0.154,0.011,0.231
			c0.019,0.396,0.059,0.785,0.13,1.164c0.003,0.016,0.002,0.032,0.006,0.049c0.001,0.003,0.005,0.03,0.009,0.044
			c0.003,0.017,0.007,0.033,0.01,0.05c0.333,1.681,5.041,25.448,10.602,49.112c3.394,14.447,6.447,26.067,9.071,34.538
			c4.809,15.519,8.017,20.624,13.732,21.849c1.487,0.318,3.04,0.504,4.682,0.701c6.991,0.835,12.818,1.531,14.932,9.918H338.32
			c-5.235,0-9.841-3.337-11.46-8.305c-27.944-85.746-38.955-122.097-40.028-127.845c0.305-3.224,4.058-13.841,8.273-23.331
			c1.86-4.186-0.025-9.087-4.212-10.947c-4.188-1.86-9.086,0.025-10.946,4.211c-2.281,5.132-9.722,22.489-9.722,30.39
			c0,1.187,0.002,3.026,5.2,20.501c-19.665,2.627-66.086,5.753-102.231,0.243c13.394-10.129,23.544-20.348,23.544-29.752
			c0-9.8-13.791-34.773-23.583-49.375c-17.793-26.533-33.862-39.986-47.763-39.986c-16.428,0-33.767,5.202-34.496,5.423
			c-4.382,1.33-6.858,5.961-5.528,10.345c1.329,4.383,5.966,6.857,10.344,5.529c0.156-0.048,15.686-4.71,29.682-4.71
			c5.474,0,17.499,8.309,33.373,31.725c12.82,18.912,20.634,36.513,21.352,40.916c-0.515,1.463-4.408,8.945-33.029,27.949
			c-18.435,12.242-39.604,24.303-52.253,31.508c-4.546,2.59-7.83,4.461-9.784,5.651c-2.061,1.254-3.475,3.344-3.869,5.725
			c-0.395,2.38,0.265,4.815,1.81,6.668l45.037,54.044c1.576,1.891,3.91,2.985,6.372,2.985h19.086c2.191,0,4.224,1.088,5.44,2.911
			l5.012,7.525h-41.257c-1.636,0-3.198-0.701-4.285-1.925l-56.966-64.085c-3.712-4.177-3.974-10.455-0.621-14.924l17.17-22.893
			c1.326-1.768,1.887-3.998,1.566-6.185c-0.321-2.187-1.507-4.159-3.287-5.473C75.842,379.62,34.6,348.683,34.6,305.54
			c0-42.857,54.236-90.789,126.819-90.789h121.039c0.819,0,1.634-0.122,2.418-0.361l59.111-18.015
			c2.517-0.767,4.523-2.688,5.402-5.169c0.065-0.182,6.58-18.419,17.096-34.195c1.185-1.779,1.639-3.947,1.265-6.052
			c-0.046-0.261-4.287-24.202-8.043-51.556c-0.021-0.48-0.09-0.959-0.196-1.434c-0.292-2.144-0.581-4.304-0.863-6.476
			c-5.64-43.352-5.076-59.478-4.174-65.316c2.071,0.671,3.909,1.933,5.623,3.835c8.357,9.272,11.989,32.231,9.254,58.489
			c-4.031,38.691,9.894,58.859,10.489,59.698c1.594,2.25,4.021,3.81,6.786,3.748c2.709-0.063,5.047-1.203,6.539-3.447
			c0.821-0.845,6.251-5.809,20.465-5.809c6.206,0,21.604,8.373,37.913,23.893c15.705,14.944,25.853,30.595,25.853,39.874
			C477.397,224.2,447.312,224.902,447.027,224.906z"/>
	</g>
</g>
<g>
	<g>
		<path d="M407.545,152.605c-6.809,0-12.348,5.539-12.348,12.349s5.539,12.349,12.348,12.349s12.349-5.539,12.349-12.349
			S414.354,152.605,407.545,152.605z"/>
	</g>
</g>
<g>
</g>
<g>
</g>
<g>
</g>
<g>
</g>
<g>
</g>
<g>
</g>
<g>
</g>
<g>
</g>
<g>
</g>
<g>
</g>
<g>
</g>
<g>
</g>
<g>
</g>
<g>
</g>
<g>
</g>
</svg>
