<svg id="Capa_1" enable-background="new 0 0 512 512" viewBox="0 0 512 512" xmlns="http://www.w3.org/2000/svg"><g><path d="m455.454 235.123-64.136-69.967c-7.475-8.154-18.106-12.831-29.168-12.831h-212.299c-11.062 0-21.693 4.677-29.168 12.831l-64.136 69.967c-10.771 11.75-11.314 29.941-1.262 42.313l184.194 226.701c4.061 4.997 10.082 7.863 16.521 7.863s12.46-2.866 16.521-7.863l184.194-226.701c10.053-12.373 9.51-30.563-1.261-42.313zm-89.768-67.535-17.072 50.078c-1.337 3.921.758 8.183 4.679 9.52.802.273 1.618.403 2.42.403 3.121 0 6.035-1.963 7.098-5.082l16.446-48.242c.343.333.679.673 1.003 1.026l64.136 69.967c.925 1.008 1.693 2.112 2.336 3.271h-99.245l-74.438-81.205h89.1c1.191.001 2.372.093 3.537.264zm-38.547 80.941h-142.278l71.139-77.605zm-88.188-81.204-67.59 73.734-25.047-73.471c1.165-.17 2.346-.263 3.536-.263zm-107.211 7.967c.324-.354.66-.694 1.003-1.026l25.317 74.264h-92.792c.643-1.158 1.411-2.262 2.336-3.271zm-67.412 88.237h268.651l-76.979 225.805-68.35-200.494c-1.336-3.92-5.597-6.016-9.519-4.679-3.921 1.337-6.016 5.599-4.679 9.519l61.91 181.603-168.436-207.306c-1.111-1.368-1.967-2.873-2.598-4.448zm212.309 211.754 72.189-211.754h98.846c-.631 1.575-1.487 3.08-2.598 4.447z"/><path d="m256 119.222c4.142 0 7.5-3.358 7.5-7.5v-104.222c0-4.142-3.358-7.5-7.5-7.5s-7.5 3.358-7.5 7.5v104.222c0 4.142 3.358 7.5 7.5 7.5z"/><path d="m177.138 123.093c1.314 2.628 3.962 4.148 6.714 4.148 1.127 0 2.271-.255 3.348-.794 3.705-1.853 5.207-6.357 3.354-10.062l-32.068-64.137c-1.852-3.705-6.357-5.207-10.062-3.354s-5.207 6.357-3.354 10.062z"/><path d="m324.8 126.447c1.077.539 2.221.794 3.348.794 2.751 0 5.4-1.52 6.714-4.148l32.068-64.137c1.853-3.705.351-8.209-3.354-10.062s-8.209-.351-10.062 3.354l-32.068 64.137c-1.853 3.705-.351 8.21 3.354 10.062z"/></g></svg>