<svg id="Capa_1" enable-background="new 0 0 511.99 511.99" height="102.5" viewBox="0 0 511.99 511.99" width="102.5" xmlns="http://www.w3.org/2000/svg"><path d="m402.999 432.489-65.7 59.101c-14.7 13.2-33.6 20.4-53.401 20.4-26.699 0-50.7-13.5-65.099-33.9-9-12.599-14.399-28.2-14.399-45l-.3-11.1c0-8.101 6.299-14.7 14.7-15h.3c9 .3 15 6.599 15 15l.3 10.8c0 27.001 22.5 49.2 49.499 49.2 12.301 0 24.3-4.501 33.301-12.601l65.698-59.399c6-5.4 15.601-4.799 21.301 1.201 5.399 6.298 4.8 15.598-1.2 21.298z" fill="#53433f"/><path d="m402.999 432.489-65.7 59.101c-14.7 13.2-33.6 20.4-53.401 20.4-26.699 0-50.7-13.5-65.099-33.9v-71.1h.3c9 .3 15 6.599 15 15l.3 10.8c0 27.001 22.5 49.2 49.499 49.2 12.301 0 24.3-4.501 33.301-12.601l65.698-59.399c6-5.4 15.601-4.799 21.301 1.201 5.4 6.298 4.801 15.598-1.199 21.298z" fill="#3e322e"/><g fill="#53433f"><path d="m118.193 297.596-30-30c-5.859-5.859-5.859-15.352 0-21.211s15.352-5.859 21.211 0l22.354 22.354 20.654-10.327c7.412-3.691 16.406-.703 20.127 6.709 3.706 7.412.703 16.421-6.709 20.127l-30.322 15.161c-5.758 2.878-12.736 1.765-17.315-2.813z"/><path d="m118.193 357.596-30-30c-5.859-5.859-5.859-15.352 0-21.211s15.352-5.859 21.211 0l22.354 22.354 28.257-14.136c7.427-3.677 16.406-.703 20.127 6.709 3.706 7.412.703 16.421-6.709 20.127l-37.925 18.97c-5.58 2.808-12.621 1.88-17.315-2.813z"/><path d="m118.193 417.596-30-30c-5.859-5.859-5.859-15.352 0-21.211s15.352-5.859 21.211 0l22.354 22.354 43.872-21.929c7.397-3.706 16.421-.688 20.127 6.709 3.706 7.412.703 16.421-6.709 20.127l-53.54 26.763c-5.758 2.878-12.736 1.765-17.315-2.813z"/><path d="m151.665 255.13-48.823-30.483c-27.202-16.978-42.173-50.53-38.159-82.376 1.025-8.218 8.452-14.033 16.758-13.008 8.218 1.04 14.048 8.54 13.008 16.758-2.593 20.596 6.709 42.21 24.272 53.167l48.823 30.483c7.031 4.395 9.17 13.652 4.79 20.669-4.443 7.086-13.716 9.136-20.669 4.79z"/></g><path d="m302.09 300.408-30.322-15.161c-7.412-3.706-10.415-12.715-6.709-20.127 3.721-7.412 12.744-10.4 20.127-6.709l20.654 10.327 22.354-22.354c5.859-5.859 15.352-5.859 21.211 0s5.859 15.352 0 21.211l-30 30c-4.572 4.571-11.548 5.697-17.315 2.813z" fill="#3e322e"/><path d="m302.09 360.408-37.925-18.97c-7.412-3.706-10.415-12.715-6.709-20.127 3.721-7.412 12.729-10.386 20.127-6.709l28.257 14.136 22.354-22.354c5.859-5.859 15.352-5.859 21.211 0s5.859 15.352 0 21.211l-30 30c-4.699 4.699-11.742 5.619-17.315 2.813z" fill="#3e322e"/><path d="m302.09 420.408-53.54-26.763c-7.412-3.706-10.415-12.715-6.709-20.127 3.691-7.397 12.715-10.415 20.127-6.709l43.872 21.929 22.354-22.354c5.859-5.859 15.352-5.859 21.211 0s5.859 15.352 0 21.211l-30 30c-4.572 4.571-11.548 5.697-17.315 2.813z" fill="#3e322e"/><path d="m265.893 255.232c-4.585-6.899-2.71-16.201 4.204-20.786l60.542-40.195c17.329-11.514 26.235-34.212 22.676-54.72-1.406-8.159 4.058-15.923 12.217-17.344 8.174-1.362 15.938 4.058 17.344 12.217 5.581 32.241-8.408 66.746-35.64 84.837l-60.557 40.195c-6.849 4.567-16.186 2.731-20.786-4.204z" fill="#3e322e"/><path d="m384.546 434.412c-17.534-17.549-17.534-46.084.015-63.633 5.581-5.581 12.554-9.609 20.142-11.646l50.215-13.447c5.2-1.436 10.708.073 14.487 3.882 3.794 3.794 5.273 9.316 3.882 14.487l-13.447 50.215c-2.036 7.588-6.064 14.561-11.646 20.142-17.633 17.632-46.102 17.546-63.648 0z" fill="#ff9100"/><path d="m218.799 181.99c-31.8 0-75 0-75 77.399 0 50.7 22.2 177.601 75 177.601s75-126.901 75-177.601c0-77.399-43.2-77.399-75-77.399z" fill="#fdbf00"/><path d="m293.799 259.389c0 50.7-22.2 177.601-75 177.601v-255c31.8 0 75 0 75 77.399z" fill="#ff9100"/><path d="m57.534 146.255c-31.425-31.394-22.18-83.889 10.605-116.675 22.969-22.969 54.8-33.735 82.793-28.11 5.918 1.187 10.547 5.801 11.748 11.704 1.216 5.903-1.23 11.968-6.211 15.381-4.775 3.267-9.551 7.09-14.092 11.631-20.522 20.537-23.848 39.8-21.211 42.437 2.622 2.622 21.899-.688 42.437-21.211 4.541-4.541 8.364-9.316 11.631-14.092 3.413-4.98 9.492-7.441 15.381-6.211 5.903 1.201 10.518 5.83 11.704 11.748 5.625 28.096-5.142 59.824-28.11 82.793-33.245 33.245-85.642 41.637-116.675 10.605z" fill="#fdbf00"/><path d="m263.388 135.649c-22.969-22.969-33.735-54.697-28.11-82.793 1.187-5.918 5.801-10.547 11.704-11.748 5.815-1.23 11.953 1.23 15.381 6.211 3.267 4.775 7.09 9.551 11.631 14.092 20.537 20.522 39.727 23.833 42.437 21.211 2.637-2.637-.688-21.899-21.211-42.437-4.541-4.541-9.316-8.364-14.092-11.631-4.98-3.413-7.427-9.478-6.211-15.381 1.201-5.903 5.83-10.518 11.748-11.704 28.096-5.566 59.824 5.142 82.793 28.11 33.158 33.158 41.729 85.582 10.605 116.675-31.146 31.147-83.548 22.522-116.675-10.605z" fill="#ff9100"/></svg>