<svg width="102.5" height="102.5" id="Capa_1" enable-background="new 0 0 511.597 511.597" viewBox="0 0 511.597 511.597" xmlns="http://www.w3.org/2000/svg"><g><path d="m43.704 472.106h146.466l19.86-15-19.86-15h-146.466z" fill="#904d24"/><path d="m190.17 442.106h194.567v30h-194.567z" fill="#582b1f"/><path d="m87.172 82.259c-21.983 9.437-36.188 30.99-36.188 54.912 0 19.697 9.694 38.113 25.933 49.263l111.019 76.227c.74.508 1.491.991 2.234 1.492l8.511-18.676-8.511-17.674-96.272-66.101c-8.085-5.552-12.913-14.722-12.913-24.53 0-11.912 7.074-22.646 18.02-27.344l91.166-39.129 8.511-15.017-8.511-17.63z" fill="#e8e1fd"/><g><g fill="#c3b9d9"><path d="m295.407 307.016 5.404-29.51c-34.616-6.34-66.88-19.656-95.895-39.578l-14.747-10.125v36.35c31.939 21.488 67.324 35.918 105.238 42.863z"/><path d="m332.777 0c-35.798 0-70.629 7.159-103.527 21.278l-39.08 16.774v32.647l50.913-21.852c29.137-12.506 59.988-18.847 91.694-18.847h14.336v-30z"/></g></g><g><path d="m96.157 182.345c-24.909 0-45.173-20.265-45.173-45.174 0-24.908 20.265-45.173 45.173-45.173 24.909 0 45.174 20.265 45.174 45.173 0 24.909-20.264 45.174-45.174 45.174zm0-60.347c-8.367 0-15.173 6.807-15.173 15.173 0 8.367 6.807 15.174 15.173 15.174s15.174-6.807 15.174-15.174c0-8.366-6.807-15.173-15.174-15.173z" fill="#edba75"/></g><g><g><g><g><path d="m-37.526 403.543h184.867v30h-184.867z" fill="#dc8758" transform="matrix(.27 -.963 .963 .27 -362.937 358.552)"/></g><g><path d="m364.249 364.773h30v145.474h-30z" fill="#904d24" transform="matrix(.963 -.27 .27 .963 -103.939 118.489)"/></g><g><g><path d="m50.984 39.087h30v249.58h-30z" fill="#582b1f"/></g></g></g><g><g><path d="m332.113 15h30v106.823h-30z" fill="#edba75"/></g><g><path d="m269.512 40.93h30v106.823h-30z" fill="#edba75" transform="matrix(.707 -.707 .707 .707 16.622 228.812)"/></g><g><path d="m205.17 141.943h106.823v30h-106.823z" fill="#edba75"/></g><g><path d="m231.1 204.545h106.823v30h-106.823z" fill="#edba75" transform="matrix(.707 -.707 .707 .707 -71.91 265.483)"/></g><g><path d="m332.113 192.064h30v106.823h-30z" fill="#edba75"/></g><g><path d="m394.715 166.133h30v106.823h-30z" fill="#edba75" transform="matrix(.707 -.707 .707 .707 -35.239 354.015)"/></g><g><path d="m382.234 141.943h106.822v30h-106.822z" fill="#edba75"/></g><g><path d="m356.303 79.342h106.823v30h-106.823z" fill="#edba75" transform="matrix(.707 -.707 .707 .707 53.293 317.344)"/></g></g></g></g><g><path d="m347.113 313.888c-86.539 0-156.943-70.405-156.943-156.944s70.404-156.944 156.943-156.944 156.943 70.404 156.943 156.943-70.404 156.945-156.943 156.945zm0-283.888c-69.997 0-126.943 56.946-126.943 126.943s56.946 126.944 126.943 126.944 126.943-56.947 126.943-126.944-56.946-126.943-126.943-126.943z" fill="#dc8758"/></g><g><path d="m347.113 207.064c-27.637 0-50.12-22.484-50.12-50.121s22.483-50.12 50.12-50.12 50.121 22.483 50.121 50.12-22.484 50.121-50.121 50.121zm0-70.241c-11.095 0-20.12 9.025-20.12 20.12s9.025 20.121 20.12 20.121 20.121-9.026 20.121-20.121-9.026-20.12-20.121-20.12z" fill="#dc8758"/></g><g><path d="m20.938 251.068-13.398 75.059 182.63 32.597 36.762-33.235-36.762-44.215z" fill="#904d24"/><path d="m453.898 328.346-263.728-47.072v77.45l250.331 44.68z" fill="#582b1f"/></g></g></svg>