<svg width="102.5" height="102.5" viewBox="0 0 59 60" xmlns="http://www.w3.org/2000/svg"><g id="Page-1" fill="none" fill-rule="evenodd"><g id="079---Spinning-Wheel" fill="rgb(0,0,0)" fill-rule="nonzero"><path id="Shape" d="m41 0c-.692 0-1.371.066-2.045.125-.023 0-.045-.008-.069-.005l-29.019 3.889-.02.007c-.11982254.00216701-.23939094.01185272-.358.029-1.63117614.28280966-2.72493915 1.83350066-2.444 3.465l4.568 26.49h-5.613c-1.65685425 0-3 1.3431458-3 3v1c0 1.6568542 1.34314575 3 3 3h2.277l-2.291 4.008c-.500162.8456374-.2927076 1.931344.484 2.533l-5.97 9.385c-.39152511.615048-.41733697 1.3944241-.06736424 2.0340295.34997274.6396053 1.02027414 1.0380894 1.74936424 1.0399705h3.63c.68442689.0019859 1.32189655-.347716 1.688-.926l3.229-5.074h5.971l-.5.336c-.731795.4879376-1.0589255 1.3966973-.8060201 2.2391021s1.0264808 1.4207124 1.9060201 1.4248979h10.7c1.1045695 0 2-.8954305 2-2v-2h17.271l3.229 5.074c.3661035.578284 1.0035731.9279859 1.688.926h3.63c.7299861-.00006 1.4019553-.3978328 1.7531577-1.0377832.3512025-.6399503.3258448-1.4204135-.0661577-2.0362168l-5.975-9.385c.7767076-.601656.984162-1.6873626.484-2.533l-2.291-4.008h2.277c1.6568542 0 3-1.3431458 3-3v-1c0-1.6568542-1.3431458-3-3-3h-2.759c7.3830231-3.8051222 11.2038109-12.1679413 9.2472599-20.2401091-1.956551-8.07216778-9.1823597-13.7574869-17.4882599-13.7598909zm-3.536 21.53c-1.4305305-1.430916-1.8576568-3.5829444-1.0820383-5.4517285.7756186-1.8687841 2.6010732-3.0859032 4.6244198-3.0833249 2.0233466.0025782 3.8456934 1.2243455 4.6165469 3.0951002.7708535 1.8707546.3382441 4.0216875-1.0959284 5.4489532-.1643155.1640306-.3404559.3157721-.527.454v-3.993c0-1.6568542-1.3431458-3-3-3s-3 1.3431458-3 3v3.992c-.1898222-.1405626-.3689785-.2949846-.536-.462zm2.536-3.53c0-.5522847.4477153-1 1-1s1 .4477153 1 1v16h-2zm4 6.32c.4188476-.1989357.816249-.4401912 1.186-.72l3.56 3.56c-1.3759922 1.166706-2.9987036 2.0060984-4.746 2.455zm6.156 1.422-3.556-3.555c.7038981-.9328773 1.1585285-2.0297034 1.321-3.187h5.03c-.2013037 2.4849015-1.1791121 4.8435361-2.795 6.742zm-2.234-8.742c-.1631514-1.1572854-.6180907-2.2540264-1.322-3.187l3.555-3.555c1.6162495 1.8983366 2.5944127 4.2569835 2.796 6.742zm-2.735-4.6c-.9328773-.7038981-2.0297034-1.1585285-3.187-1.321v-5.03c2.4849015.20130372 4.8435361 1.17911205 6.742 2.795zm-5.187-1.322c-1.1572854.1631514-2.2540264.6180907-3.187 1.322l-3.555-3.556c1.8984639-1.61588795 4.2570985-2.59369628 6.742-2.795zm-8.156-.82 3.556 3.555c-.7038981.9328773-1.1585285 2.0297034-1.321 3.187h-5.03c.2013037-2.4849015 1.1791121-4.8435361 2.795-6.742zm2.234 8.742c.1627667 1.1573905.6177446 2.2542245 1.322 3.187l-3.555 3.555c-1.6162495-1.8983366-2.5944127-4.2569835-2.796-6.742zm2.737 4.6c.3693126.2799306.7663953.521196 1.185.72v5.295c-1.7472964-.4489016-3.3700078-1.288294-4.746-2.455zm-19.115 10.4-4.745-27.511c-.0553096-.29165533-.1530118-.57364431-.29-.837l18.076-2.422c-5.1917287 3.59680023-8.1155319 9.6539154-7.7021997 15.9563098.4133322 6.3023943 4.1031809 11.925764 9.7201997 14.8136902zm-8.684-26.832c-.04705961-.25991713.01279609-.52782546.166-.743.15532078-.22019182.39293094-.36838268.659-.411.2599998-.04504513.5272107.01589544.7419711.16921518.2147603.15331973.3591855.38625059.4010289.64678482l4.689 27.17h-2.031zm1.564 33.832h5.7l-2.86 5h-5.7zm28.84 0 3.712 6.5.014.018.01.023.3.463h-13.671c-.0705323-.1433813-.1581704-.2776926-.261-.4l2.2-6.6zm-11.777 5.918c-.2676424.0426983-.523625.1400534-.752.286l-1.191.796h-11.151l.295-.463.01-.023.014-.018 3.712-6.496h11.033zm-21.831 11.082h-3.629l6.366-10h3.629zm6.188-6 1.274-2h9.426l-3 2zm16 4h-10.7l10.7-7.132zm2-4v-2h14.724l1.276 2zm22.189 6-6.367-10h3.629l6.373 10zm-1.913-12h-5.7l-2.857-5h5.7zm2.724-9v1c0 .5522847-.4477153 1-1 1h-46c-.55228475 0-1-.4477153-1-1v-1c0-.5522847.44771525-1 1-1h46c.5522847 0 1 .4477153 1 1zm-9-3.3v-2.029c6.9819688-1.5317164 11.688806-8.0772035 10.9184611-15.1835818-.7703448-7.1063783-6.7704513-12.49121253-13.9184611-12.49121253s-13.1481163 5.38483423-13.9184611 12.49121253c-.7703449 7.1063783 3.9364923 13.6518654 10.9184611 15.1835818v2.029c-8.1065058-1.5474138-13.7060608-9.0067287-12.9289004-17.222929s7.6760266-14.49330465 15.9289004-14.49330465 15.15174 6.27710435 15.9289004 14.49330465-4.8223946 15.6755152-12.9289004 17.222929z"/></g></g></svg>