<svg width="102.5" height="102.5" id="Capa_1" enable-background="new 0 0 512.003 512.003"  viewBox="0 0 512.003 512.003" xmlns="http://www.w3.org/2000/svg"><g><path d="m226.884 466.138h-.262c-.061-.123-.122-.246-.183-.369-1.89-3.793-6.496-5.336-10.29-3.445-3.793 1.89-5.335 6.497-3.445 10.29.712 1.43 1.411 2.899 2.076 4.365 1.244 2.743 3.977 4.505 6.989 4.505h5.115c4.238 0 7.673-3.435 7.673-7.673s-3.436-7.673-7.673-7.673z"/><path d="m252.362 481.484h7.279c4.238 0 7.673-3.435 7.673-7.673s-3.435-7.673-7.673-7.673h-7.279c-4.238 0-7.673 3.435-7.673 7.673s3.435 7.673 7.673 7.673z"/><path d="m285.12 481.484h5.115c3.012 0 5.745-1.762 6.989-4.505.667-1.472 1.365-2.94 2.076-4.365 1.89-3.793.349-8.4-3.444-10.291-3.791-1.89-8.4-.349-10.291 3.444-.061.123-.123.246-.184.37h-.261c-4.238 0-7.673 3.435-7.673 7.673s3.435 7.674 7.673 7.674z"/><path d="m304.721 448.674c1.431 1.182 3.162 1.758 4.883 1.758 2.21 0 4.403-.95 5.92-2.786 1.804-2.184 3.702-4.334 5.64-6.39 2.907-3.084 2.763-7.94-.32-10.847-3.084-2.906-7.939-2.762-10.847.32-2.167 2.298-4.287 4.701-6.304 7.142-2.699 3.267-2.239 8.104 1.028 10.803z"/><path d="m333.277 419.915c1.478 2.222 3.913 3.425 6.396 3.425 1.46 0 2.935-.416 4.242-1.285 2.355-1.566 4.793-3.075 7.246-4.484 3.675-2.111 4.941-6.802 2.83-10.476-2.112-3.676-6.803-4.943-10.476-2.831-2.741 1.575-5.466 3.261-8.098 5.011-3.528 2.348-4.487 7.111-2.14 10.64z"/><path d="m376.272 406.114c.733 0 1.478-.106 2.216-.328 2.706-.815 5.476-1.552 8.233-2.189 4.129-.955 6.701-5.076 5.747-9.205-.955-4.128-5.073-6.699-9.205-5.747-3.08.712-6.176 1.535-9.2 2.446-4.058 1.222-6.357 5.502-5.135 9.56 1 3.32 4.047 5.463 7.344 5.463z"/><path d="m408.676 392.562c-.006 4.238 3.424 7.678 7.662 7.685 1.609.002 3.237.034 4.838.094.097.004.194.006.291.006 3.271 0 6.196-2.079 7.26-5.194l5.958-17.454c1.181-3.459-.242-7.271-3.402-9.11-1.395-.812-2.79-1.657-4.145-2.512-3.586-2.26-8.323-1.185-10.583 2.399-2.103 3.337-1.318 7.673 1.691 10.079l-2.222 6.353c-4.083.17-7.342 3.529-7.348 7.654z"/><path d="m376.28 305.266c-1.242-3.1-2.381-6.295-3.384-9.496-1.268-4.043-5.575-6.293-9.617-5.026-4.043 1.268-6.294 5.573-5.027 9.617 1.121 3.576 2.394 7.146 3.782 10.612 1.202 2.998 4.082 4.821 7.125 4.821.95 0 1.916-.178 2.851-.553 3.935-1.574 5.846-6.041 4.27-9.975z"/><path d="m399.629 354.336c3.138-2.847 3.374-7.7.527-10.839-2.248-2.478-4.422-5.074-6.463-7.719-2.589-3.355-7.408-3.976-10.762-1.387-3.355 2.589-3.976 7.407-1.387 10.762 2.288 2.965 4.726 5.877 7.246 8.655 1.514 1.669 3.596 2.517 5.685 2.517 1.84.001 3.685-.657 5.154-1.989z"/><path d="m351.597 250.39c-.07 1.866-.106 3.759-.106 5.623s.035 3.757.105 5.627c.156 4.136 3.558 7.385 7.663 7.385.097 0 .195-.002.294-.006 4.235-.159 7.538-3.722 7.379-7.956-.063-1.677-.095-3.375-.094-5.048 0-1.675.032-3.373.095-5.047.159-4.235-3.144-7.797-7.379-7.956-4.241-.162-7.798 3.143-7.957 7.378z"/><path d="m362.029 201.06c-1.388 3.466-2.66 7.036-3.78 10.609-1.267 4.044.985 8.349 5.029 9.616.764.239 1.536.353 2.296.353 3.265 0 6.292-2.101 7.32-5.381 1.002-3.198 2.139-6.391 3.381-9.491 1.576-3.934-.336-8.4-4.27-9.976-3.935-1.577-8.4.336-9.976 4.27z"/><path d="m393.681 176.25c2.041-2.646 4.213-5.242 6.456-7.717 2.846-3.14 2.609-7.992-.531-10.839-3.14-2.846-7.992-2.609-10.839.531-2.515 2.775-4.951 5.686-7.239 8.653-2.588 3.356-1.965 8.174 1.39 10.762 1.396 1.076 3.044 1.597 4.68 1.597 2.299.001 4.572-1.027 6.083-2.987z"/><path d="m416.553 143.528c2.26 3.585 6.997 4.659 10.583 2.4 1.364-.86 2.759-1.705 4.145-2.512 3.16-1.839 4.583-5.651 3.402-9.11l-5.958-17.454c-1.094-3.207-4.159-5.311-7.55-5.189-1.61.061-3.238.093-4.838.095-4.238.006-7.668 3.447-7.662 7.685.006 4.125 3.265 7.484 7.347 7.655l2.222 6.353c-3.008 2.405-3.794 6.74-1.691 10.077z"/><path d="m310.015 81.294c1.51 1.601 3.545 2.409 5.585 2.409 1.888 0 3.78-.693 5.262-2.09 3.083-2.907 3.226-7.763.319-10.847-1.94-2.058-3.838-4.207-5.638-6.386-2.7-3.266-7.535-3.726-10.803-1.027-3.267 2.699-3.726 7.536-1.027 10.803 2.014 2.436 4.134 4.838 6.302 7.138z"/><path d="m386.753 108.411c-2.762-.638-5.532-1.374-8.234-2.188-4.055-1.222-8.338 1.074-9.561 5.132-1.223 4.057 1.075 8.338 5.132 9.561 3.022.911 6.122 1.735 9.21 2.448.581.134 1.161.198 1.733.198 3.492 0 6.65-2.4 7.469-5.948.954-4.13-1.62-8.249-5.749-9.203z"/><path d="m351.184 94.441c-2.451-1.408-4.89-2.917-7.249-4.483-3.531-2.345-8.292-1.384-10.637 2.145-2.345 3.53-1.385 8.292 2.145 10.637 2.635 1.75 5.359 3.435 8.098 5.008 1.204.692 2.518 1.021 3.814 1.021 2.658 0 5.242-1.383 6.661-3.853 2.11-3.675.842-8.364-2.832-10.475z"/><path d="m285.12 45.865h.261c.061.124.123.247.184.37 1.892 3.794 6.499 5.333 10.291 3.444 3.792-1.891 5.334-6.498 3.444-10.291-.713-1.429-1.411-2.897-2.076-4.364-1.243-2.743-3.976-4.506-6.989-4.506h-5.115c-4.238 0-7.673 3.435-7.673 7.673s3.435 7.674 7.673 7.674z"/><path d="m252.362 45.865h7.279c4.238 0 7.673-3.435 7.673-7.673s-3.435-7.673-7.673-7.673h-7.279c-4.238 0-7.673 3.435-7.673 7.673s3.435 7.673 7.673 7.673z"/><path d="m226.884 30.519h-5.115c-3.012 0-5.745 1.762-6.989 4.505-.664 1.467-1.363 2.935-2.076 4.365-1.89 3.793-.348 8.4 3.445 10.29 3.787 1.888 8.397.353 10.29-3.445.062-.123.122-.246.183-.369h.262c4.238 0 7.673-3.435 7.673-7.673s-3.436-7.673-7.673-7.673z"/><path d="m207.281 63.328c-3.268-2.7-8.104-2.238-10.803 1.029-1.803 2.183-3.701 4.333-5.64 6.391-2.906 3.084-2.762 7.94.321 10.847 1.482 1.397 3.373 2.089 5.261 2.089 2.04 0 4.076-.809 5.585-2.41 2.167-2.3 4.288-4.703 6.303-7.142 2.701-3.268 2.24-8.105-1.027-10.804z"/><path d="m178.727 92.088c-2.346-3.529-7.109-4.486-10.638-2.14-2.355 1.566-4.793 3.075-7.245 4.484-3.675 2.111-4.942 6.802-2.83 10.476 1.419 2.47 4.002 3.852 6.66 3.852 1.297 0 2.611-.329 3.816-1.021 2.742-1.575 5.466-3.261 8.098-5.011 3.527-2.348 4.485-7.112 2.139-10.64z"/><path d="m133.515 106.217c-2.707.815-5.476 1.552-8.232 2.188-4.129.954-6.702 5.075-5.747 9.204.82 3.547 3.977 5.946 7.469 5.946.573 0 1.154-.064 1.735-.199 3.08-.712 6.175-1.535 9.201-2.446 4.058-1.222 6.356-5.502 5.134-9.56-1.222-4.057-5.502-6.358-9.56-5.133z"/><path d="m103.328 119.438c.005-4.238-3.427-7.677-7.664-7.682-1.6-.002-3.228-.033-4.838-.093-3.415-.137-6.454 1.983-7.548 5.189l-5.958 17.454c-1.181 3.459.242 7.271 3.402 9.11 1.395.812 2.79 1.657 4.145 2.512 3.588 2.26 8.325 1.184 10.583-2.399 2.103-3.337 1.318-7.673-1.691-10.079l2.223-6.353c4.081-.172 7.341-3.533 7.346-7.659z"/><path d="m118.322 335.753c-2.041 2.646-4.213 5.242-6.456 7.717-2.846 3.14-2.609 7.992.531 10.839 1.469 1.332 3.313 1.988 5.151 1.988 2.09 0 4.173-.849 5.688-2.519 2.515-2.775 4.951-5.686 7.238-8.653 2.588-3.356 1.965-8.174-1.39-10.762s-8.174-1.965-10.762 1.39z"/><path d="m149.974 310.943c1.388-3.466 2.66-7.036 3.78-10.609 1.267-4.044-.985-8.349-5.029-9.616-4.044-1.264-8.348.985-9.616 5.029-1.002 3.198-2.139 6.391-3.381 9.491-1.576 3.934.336 8.4 4.27 9.976.936.375 1.901.552 2.85.552 3.044-.001 5.925-1.825 7.126-4.823z"/><path d="m160.406 261.613c.07-1.866.106-3.76.106-5.627 0-1.866-.036-3.758-.106-5.622-.16-4.235-3.721-7.546-7.956-7.379-4.235.159-7.538 3.722-7.379 7.956.063 1.674.095 3.371.095 5.045 0 1.676-.032 3.375-.095 5.05-.159 4.235 3.144 7.797 7.379 7.956.099.004.196.006.294.006 4.104 0 7.506-3.248 7.662-7.385z"/><path d="m112.374 157.667c-3.138 2.847-3.375 7.7-.527 10.839 2.248 2.478 4.422 5.074 6.463 7.719 1.512 1.959 3.783 2.986 6.08 2.986 1.637 0 3.287-.522 4.682-1.599 3.355-2.589 3.976-7.407 1.387-10.762-2.288-2.965-4.726-5.877-7.246-8.655-2.847-3.139-7.7-3.376-10.839-.528z"/><path d="m135.724 206.737c1.242 3.1 2.381 6.295 3.384 9.496 1.029 3.28 4.055 5.38 7.32 5.38.76 0 1.534-.114 2.297-.353 4.043-1.268 6.294-5.573 5.027-9.617-1.121-3.576-2.394-7.146-3.783-10.612-1.577-3.934-6.042-5.844-9.977-4.269-3.934 1.574-5.845 6.041-4.268 9.975z"/><path d="m95.449 368.474c-2.26-3.584-6.998-4.658-10.583-2.398-1.353.853-2.747 1.698-4.144 2.511-3.16 1.839-4.583 5.651-3.402 9.11l5.958 17.454c1.063 3.115 3.989 5.194 7.26 5.194.096 0 .194-.002.291-.006 1.604-.06 3.232-.092 4.836-.094 4.238-.005 7.669-3.444 7.664-7.682-.005-4.126-3.264-7.487-7.347-7.657l-2.222-6.354c3.009-2.405 3.793-6.741 1.689-10.078z"/><path d="m125.251 403.592c2.756.636 5.528 1.373 8.237 2.188.737.222 1.482.328 2.215.328 3.297 0 6.345-2.143 7.344-5.464 1.221-4.058-1.078-8.338-5.136-9.559-3.028-.912-6.126-1.734-9.207-2.446-4.127-.953-8.249 1.621-9.203 5.75-.954 4.13 1.621 8.25 5.75 9.203z"/><path d="m201.987 430.712c-2.906-3.082-7.762-3.226-10.847-.319-3.083 2.907-3.226 7.763-.319 10.847 1.936 2.053 3.834 4.202 5.641 6.387 1.518 1.835 3.709 2.783 5.918 2.783 1.722 0 3.455-.577 4.886-1.76 3.266-2.7 3.724-7.538 1.023-10.803-2.02-2.441-4.14-4.841-6.302-7.135z"/><path d="m160.819 417.562c2.455 1.41 4.894 2.919 7.247 4.483 1.306.868 2.781 1.284 4.241 1.284 2.483 0 4.92-1.203 6.397-3.427 2.346-3.529 1.386-8.292-2.143-10.638-2.631-1.748-5.355-3.434-8.099-5.01-3.675-2.109-8.365-.844-10.476 2.832-2.11 3.675-.842 8.365 2.833 10.476z"/><path d="m454.724 346.453c-30.358-14.272-50.79-41.3-56.057-74.153-.654-4.089-4.486-6.877-8.593-6.218-4.09.655-6.874 4.502-6.218 8.592 6.063 37.828 29.568 68.938 64.486 85.354 4.309 2.026 6.385 6.99 4.829 11.548l-13.205 38.684c-1.433 4.196-5.609 6.861-9.921 6.339-53.147-6.448-103.199 24.076-121.742 74.219-1.368 3.7-4.928 6.186-8.857 6.186h-25.945c-4.143 0-7.5 3.358-7.5 7.5s3.357 7.5 7.5 7.5h25.945c10.177 0 19.39-6.422 22.926-15.982 16.123-43.599 59.648-70.134 105.867-64.531 11.305 1.371 22.213-5.518 25.923-16.384l13.205-38.684c4.029-11.804-1.406-24.687-12.643-29.97z"/><path d="m57.279 346.454c-11.236 5.282-16.672 18.166-12.644 29.968l13.205 38.684c3.71 10.867 14.604 17.761 25.923 16.384 46.19-5.605 89.744 20.932 105.867 64.532 3.536 9.559 12.749 15.981 22.926 15.981h25.945c4.143 0 7.5-3.358 7.5-7.5s-3.357-7.5-7.5-7.5h-25.945c-3.93 0-7.489-2.486-8.857-6.185-18.543-50.145-68.605-80.669-121.742-74.22-4.312.524-8.488-2.142-9.921-6.339l-13.205-38.684c-1.556-4.558.521-9.522 4.83-11.548 40.698-19.133 65.98-58.996 65.98-104.031 0-45.03-25.282-84.889-65.981-104.022-4.309-2.026-6.385-6.99-4.829-11.548l13.205-38.684c1.433-4.197 5.612-6.865 9.921-6.339 53.14 6.445 103.199-24.076 121.742-74.219 1.368-3.7 4.928-6.185 8.857-6.185h86.891c3.93 0 7.489 2.485 8.857 6.184 18.539 50.133 68.59 80.669 121.742 74.22 4.303-.524 8.487 2.142 9.921 6.339l13.205 38.684c1.556 4.558-.521 9.522-4.83 11.548-34.902 16.409-58.404 47.508-64.479 85.322-.657 4.089 2.126 7.938 6.216 8.595 4.091.656 7.938-2.127 8.595-6.216 5.275-32.842 25.706-59.86 56.051-74.127 11.236-5.282 16.672-18.166 12.644-29.968l-13.205-38.684c-3.709-10.866-14.603-17.76-25.923-16.384-46.198 5.602-89.743-20.932-105.867-64.532-3.537-9.558-12.75-15.98-22.927-15.98h-86.891c-10.177 0-19.39 6.422-22.926 15.982-16.123 43.599-59.649 70.133-105.867 64.531-11.314-1.376-22.213 5.519-25.923 16.384l-13.205 38.684c-4.028 11.802 1.407 24.686 12.643 29.968 35.383 16.635 57.363 51.292 57.363 90.448 0 39.161-21.98 73.822-57.362 90.457z"/></g></svg>