<svg width="102.5" height="102.5" id="Capa_1" enable-background="new 0 0 512 512" viewBox="0 0 512 512" xmlns="http://www.w3.org/2000/svg"><g id="XMLID_1088_"><g id="XMLID_747_"><path id="XMLID_824_" d="m448 40h-22v-30c0-5.523-4.477-10-10-10h-44c-5.523 0-10 4.477-10 10v30h-211.746v-30c0-5.523-4.477-10-10-10h-44c-5.523 0-10 4.477-10 10v30h-22.254c-5.523 0-10 4.478-10 10v44c0 5.522 4.477 10 10 10h22.254v198h-14.254c-5.523 0-10 4.478-10 10v52c0 5.522 4.477 10 10 10h14v128c0 5.522 4.477 10 10 10h320c5.523 0 10-4.478 10-10v-128h14c5.523 0 10-4.478 10-10v-52c0-5.522-4.477-10-10-10h-14v-198h22c5.523 0 10-4.478 10-10v-44c0-5.522-4.477-10-10-10zm-66-20h24v20h-24zm-76.153 282c2.647-5.094 4.153-10.873 4.153-17v-65.333c0-26.314-18.923-48.279-43.873-53.034v-62.633h95.873v198zm-59.72-242v24h-101.984l-24-24zm20 24v-24h24v24zm-115.873 20h95.873v62.588c-25.075 4.654-44.127 26.677-44.127 53.079v65.333c0 6.127 1.506 11.906 4.153 17h-55.899zm139.746 117.667h-68v-2c0-18.748 15.252-34 34-34s34 15.252 34 34zm-68 63.333v-43.333h68v43.333c0 9.374-7.626 17-17 17h-34c-9.374 0-17-7.626-17-17zm88.127-201v-24h57.564l24 24zm-203.873-64h24v20h-24zm-32.254 40h17.858l24 24h-41.858zm32.254 44h24v198h-24zm323.746 250h-128.937c-5.523 0-10 4.478-10 10s4.477 10 10 10h104.937v32h-33.873c-5.523 0-10 4.478-10 10s4.477 10 10 10h33.873v66h-300v-66h34c5.523 0 10-4.478 10-10s-4.477-10-10-10h-34v-32h105.062c5.523 0 10-4.478 10-10s-4.477-10-10-10h-129.062v-32h348zm-48-52v-198h24v198zm56-218h-18.024l-24-24h42.024z"/><path id="XMLID_838_" d="m256.06 373.94c2.64 0 5.21-1.069 7.079-2.93 1.86-1.87 2.921-4.44 2.921-7.07 0-2.64-1.06-5.21-2.921-7.069-1.87-1.86-4.44-2.931-7.079-2.931-2.63 0-5.211 1.07-7.07 2.931-1.86 1.859-2.93 4.44-2.93 7.069 0 2.63 1.07 5.2 2.93 7.07 1.86 1.86 4.44 2.93 7.07 2.93z"/><path id="XMLID_839_" d="m219 447.5h-41c-5.523 0-10 4.478-10 10s4.477 10 10 10h41c5.523 0 10-4.478 10-10s-4.477-10-10-10z"/><path id="XMLID_840_" d="m284.5 457.5c0 5.522 4.477 10 10 10h41c5.523 0 10-4.478 10-10s-4.477-10-10-10h-41c-5.523 0-10 4.478-10 10z"/><path id="XMLID_841_" d="m287.5 416c0-5.522-4.477-10-10-10h-41c-5.523 0-10 4.478-10 10s4.477 10 10 10h41c5.523 0 10-4.478 10-10z"/></g></g></svg>