<svg width="102.5" height="102.5" id="Capa_1" enable-background="new 0 0 504.67 504.67" viewBox="0 0 504.67 504.67"  xmlns="http://www.w3.org/2000/svg"><path d="m395.41 154.628h-293.15c-4.142 0-7.5-3.358-7.5-7.5s3.358-7.5 7.5-7.5h293.15c4.142 0 7.5 3.358 7.5 7.5s-3.358 7.5-7.5 7.5z" fill="#fccd7f"/><path d="m443.645 204.23v20.88c0 2.63-2.13 4.76-4.75 4.76h-316.58-56.54c-2.62 0-4.75-2.13-4.75-4.76v-20.88c0-2.63 2.13-4.76 4.75-4.76h56.54 316.58c2.62 0 4.75 2.13 4.75 4.76z" fill="#fccd7f"/><path d="m383.355 127.3h30.39v245.88h-30.39z" fill="#fbc56d"/><path d="m91.925 127.3h30.39v245.88h-30.39z" fill="#fbc56d"/><path d="m106.115 396.14h292.44v108.53h-292.44z" fill="#b5adb6"/><path d="m322.745 396.14v40.78h-33.4-36.51v-40.78z" fill="#a79ba7"/><path d="m182.925 396.14v40.78h-42.21-33.6-1v-40.78z" fill="#a79ba7"/><path d="m216.325 478.13v.57h-75.61v-.57-40.78-.43h42.21 33.4v.43z" fill="#a79ba7"/><path d="m364.955 478.13v.57h-75.61v-.57-40.78-.43h33.4 42.21v.43z" fill="#a79ba7"/><g fill="#cbc4cc"><path d="m398.555 444.42h-291.44c-4.142 0-7.5-3.358-7.5-7.5s3.358-7.5 7.5-7.5h291.44c4.142 0 7.5 3.358 7.5 7.5s-3.358 7.5-7.5 7.5z"/><path d="m252.835 444.42c-4.142 0-7.5-3.358-7.5-7.5v-40.78c0-4.142 3.358-7.5 7.5-7.5s7.5 3.358 7.5 7.5v40.78c0 4.142-3.358 7.5-7.5 7.5z"/><path d="m322.745 444.42c-4.142 0-7.5-3.358-7.5-7.5v-40.78c0-4.142 3.358-7.5 7.5-7.5s7.5 3.358 7.5 7.5v40.78c0 4.142-3.358 7.5-7.5 7.5z"/><path d="m182.925 444.42c-4.142 0-7.5-3.358-7.5-7.5v-40.78c0-4.142 3.358-7.5 7.5-7.5s7.5 3.358 7.5 7.5v40.78c0 4.142-3.358 7.5-7.5 7.5z"/><path d="m140.715 485.63c-4.142 0-7.5-3.358-7.5-7.5v-40.78c0-4.142 3.358-7.5 7.5-7.5s7.5 3.358 7.5 7.5v40.78c0 4.142-3.358 7.5-7.5 7.5z"/><path d="m216.325 485.63c-4.142 0-7.5-3.358-7.5-7.5v-40.78c0-4.142 3.358-7.5 7.5-7.5s7.5 3.358 7.5 7.5v40.78c0 4.142-3.358 7.5-7.5 7.5z"/><path d="m364.955 485.63c-4.142 0-7.5-3.358-7.5-7.5v-40.78c0-4.142 3.358-7.5 7.5-7.5s7.5 3.358 7.5 7.5v40.78c0 4.142-3.358 7.5-7.5 7.5z"/><path d="m289.345 485.63c-4.142 0-7.5-3.358-7.5-7.5v-40.78c0-4.142 3.358-7.5 7.5-7.5s7.5 3.358 7.5 7.5v40.78c0 4.142-3.358 7.5-7.5 7.5z"/></g><path d="m311.41 349.177h-118.15l-10.334-44.442h138.818z" fill="#a8d3d8"/><path d="m210.614 304.735h-27.688l10.334 44.441h118.15l3.423-14.72h-66.793c-17.869 0-33.379-12.317-37.426-29.721z" fill="#8ebac5"/><path d="m252.137 312.233c-4.124-.106-7.302-3.72-7.302-7.845v-102.072c0-4.125 3.178-7.739 7.302-7.845 4.233-.109 7.698 3.29 7.698 7.497v102.767c0 4.208-3.465 7.607-7.698 7.498z" fill="#d8aa5e"/><path d="m288.673 231.87h1.351c3.769 0 6.825-3.055 6.825-6.825v-20.751c0-3.769-3.055-6.825-6.825-6.825h-1.351c-3.769 0-6.825 3.055-6.825 6.825v20.751c0 3.77 3.056 6.825 6.825 6.825z" fill="#d8aa5e"/><path d="m325.692 231.87h1.339c3.772 0 6.831-3.058 6.831-6.831v-20.739c0-3.772-3.058-6.831-6.831-6.831h-1.339c-3.772 0-6.831 3.058-6.831 6.831v20.739c.001 3.773 3.059 6.831 6.831 6.831z" fill="#d8aa5e"/><path d="m214.081 230.87h2.482c3.457 0 6.259-2.729 6.259-6.095v-20.533c0-3.366-2.802-6.095-6.259-6.095h-2.482c-3.457 0-6.259 2.729-6.259 6.095v20.533c0 3.366 2.802 6.095 6.259 6.095z" fill="#d8aa5e"/><path d="m177.243 230.87h2.13c3.554 0 6.435-2.881 6.435-6.435v-19.53c0-3.554-2.881-6.435-6.435-6.435h-2.13c-3.554 0-6.435 2.881-6.435 6.435v19.53c0 3.554 2.881 6.435 6.435 6.435z" fill="#d8aa5e"/><path d="m123.084 155.304h-31.935c-4.516 0-8.176-3.661-8.176-8.176v-60.084h48.287v60.084c0 4.515-3.66 8.176-8.176 8.176z" fill="#e9b665"/><path d="m382.586 155.304h31.935c4.516 0 8.176-3.661 8.176-8.176v-59.084h-48.287v59.084c0 4.515 3.661 8.176 8.176 8.176z" fill="#e9b665"/><path d="m438.145 96.26c2.03 4.61-1.34 9.78-6.38 9.78h-358.86c-5.04 0-8.41-5.17-6.38-9.78l40.53-92.09c1.11-2.53 3.62-4.17 6.38-4.17h277.8c2.76 0 5.27 1.64 6.38 4.17z" fill="#e19974"/><path d="m425.898 68.433 12.247 27.827c2.03 4.61-1.34 9.78-6.38 9.78h-358.86c-5.04 0-8.41-5.17-6.38-9.78l40.53-92.09c1.11-2.53 3.62-4.17 6.38-4.17h50.614l-.834 1.848c-14.024 31.065 8.667 66.255 42.75 66.299z" fill="#dc8758"/><path d="m144.765 0-34.99 106.04h-36.87c-5.04 0-8.41-5.17-6.38-9.78l40.53-92.09c1.11-2.53 3.62-4.17 6.38-4.17h31.33z" fill="#d77f4a"/><path d="m216.475 0-11.66 106.04h-47.52l23.33-106.04z" fill="#dc8758"/><path d="m205.965 68.147c-15.165-.02-28.063-7.007-36.487-17.483l-12.183 55.376h47.52l4.166-37.89z" fill="#d77f4a"/><path d="m288.195 0 11.66 106.04h-46.51v-106.04z" fill="#dc8758"/><path d="m253.345 68.208v37.832h46.51l-4.154-37.777z" fill="#d77f4a"/><path d="m359.905 0 34.99 106.04h-47.52l-23.33-106.04z" fill="#dc8758"/><path d="m339.076 68.32 8.299 37.72h47.52l-12.428-37.664z" fill="#d77f4a"/><path d="m332.86 312.235h-160.149c-4.142 0-7.5-3.358-7.5-7.5s3.358-7.5 7.5-7.5h160.149c4.142 0 7.5 3.358 7.5 7.5s-3.357 7.5-7.5 7.5z" fill="#7ca1b1"/><path d="m406.055 396.14c0-4.142-3.358-7.5-7.5-7.5h-292.44c-4.142 0-7.5 3.358-7.5 7.5v108.53h307.44zm-15 82.56h-26.1-75.61-73.02-75.61-27.1v-75.06h277.44z" fill="#cbc4cc"/><path d="m415.535 349.177h-328.64c-6.917 0-12.525 5.608-12.525 12.525v21.916c0 6.917 5.608 12.525 12.525 12.525h328.64c6.917 0 12.525-5.608 12.525-12.525v-21.916c0-6.918-5.608-12.525-12.525-12.525z" fill="#e2dee2"/></svg>