<svg width="102.5" height="102.5" id="Capa_1" enable-background="new 0 0 511 511" viewBox="0 0 511 511" xmlns="http://www.w3.org/2000/svg"><g><path d="m451 105.474h60v-75h-15.5v-29.974h-60v29.974h-30v15h90.5v45h-481v-45h375.5v-15h-314.5v-29.974h-60v29.974h-16v75h61v44.991l-6.824 43.955 14.789 2.506 7.872-46.461h23.759l-59.414 345.035h-22.803l48.169-284.305-14.789-2.506-51.135 301.811h53.195l23.247-135h268.434v-15h-265.851l2.561-14.872h346.575l2.561 14.872h-40.846v15h43.429l23.247 135h53.196l-59.372-360.035zm-.5-89.974h30v14.974h-30zm-419.5 0h30v14.974h-30zm405 89.974v29.991h-360v-29.991zm-351.207 225.154 31.024-180.163h279.361l31.024 180.163zm407.823 164.872h-22.802l-59.414-345.035h24.758z"/><path d="m360.5 360.5h15v15h-15z"/><path d="m45.5 60.474h15v15h-15z"/><path d="m75.5 60.474h15v15h-15z"/></g></svg>