<svg  width="102.5" height="102.5" viewBox="0 -75 512 512" xmlns="http://www.w3.org/2000/svg"><path d="m432.550781 8.835938h26.484375c9.75 0 17.65625 7.902343 17.65625 17.652343v30.898438h-61.792968v-30.898438c0-9.75 7.902343-17.652343 17.652343-17.652343zm0 0" fill="#f18d46"/><path d="m52.964844 8.835938h26.484375c9.75 0 17.652343 7.902343 17.652343 17.652343v35.3125h-61.792968v-35.3125c0-9.75 7.90625-17.652343 17.65625-17.652343zm0 0" fill="#f18d46"/><path d="m413.574219 291.316406h-67.972657c-4.875 0-8.828124-3.953125-8.828124-8.828125s3.953124-8.828125 8.828124-8.828125h67.972657c4.875 0 8.824219 3.953125 8.824219 8.828125s-3.949219 8.828125-8.824219 8.828125zm0 0" fill="#7f8284"/><path d="m166.398438 291.316406h-67.972657c-4.875 0-8.824219-3.953125-8.824219-8.828125s3.949219-8.828125 8.824219-8.828125h67.972657c4.875 0 8.828124 3.953125 8.828124 8.828125s-3.953124 8.828125-8.828124 8.828125zm0 0" fill="#7f8284"/><path d="m331.742188 123.59375-75.742188 213.449219-8.828125 24.894531h64.359375c3.75 0 7.09375-2.371094 8.332031-5.914062l25.738281-73.535157 33.984376-97.101562 33.988281 97.101562 25.734375 73.535157c1.242187 3.542968 4.585937 5.914062 8.339844 5.914062h51.851562c2.867188 0 5.558594-1.394531 7.210938-3.734375 1.652343-2.34375 2.066406-5.34375 1.109374-8.046875l-31.128906-87.707031-69.152344-194.765625zm0 0" fill="#805333"/><path d="m84.566406 123.59375-80.386718 226.5625c-.957032 2.703125-.546876 5.703125 1.109374 8.046875 1.652344 2.339844 4.34375 3.734375 7.210938 3.734375h51.859375c3.75 0 7.09375-2.371094 8.332031-5.914062l59.722656-170.636719 59.722657 170.636719c1.238281 3.542968 4.582031 5.914062 8.335937 5.914062h51.855469c2.867187 0 5.554687-1.394531 7.210937-3.734375 1.652344-2.34375 2.066407-5.34375 1.109376-8.046875l-31.132813-87.707031-49.257813-138.855469-47.84375-8.828125zm0 0" fill="#a56a43"/><path d="m300.136719 52.972656h194.207031c9.738281.027344 17.628906 7.914063 17.65625 17.65625v35.308594c-.027344 9.738281-7.917969 17.625-17.65625 17.65625h-476.6875c-9.738281-.03125-17.6289062-7.917969-17.65625-17.65625v-35.308594c.0273438-9.742187 7.917969-17.628906 17.65625-17.65625zm0 0" fill="#cf976a"/><path d="m220.691406 44.144531h70.617188c4.878906 0 8.828125 3.953125 8.828125 8.828125v70.621094c0 4.875-3.949219 8.828125-8.828125 8.828125h-70.617188c-4.878906 0-8.828125-3.953125-8.828125-8.828125v-70.621094c0-4.875 3.949219-8.828125 8.828125-8.828125zm0 0" fill="#2980ba"/><path d="m255.992188 97.113281c-1.234376 0-2.453126-.261719-3.578126-.765625-2.140624-.949218-3.8125-2.710937-4.65625-4.898437-.839843-2.183594-.777343-4.613281.171876-6.753907l35.3125-79.449218c1.980468-4.457032 7.199218-6.464844 11.652343-4.484375 4.457031 1.980469 6.464844 7.199219 4.484375 11.65625l-35.308594 79.449219c-1.421874 3.191406-4.585937 5.246093-8.078124 5.246093zm0 0" fill="#95a5a5"/><path d="m308.964844 17.660156h-35.308594c-4.875 0-8.828125-3.949218-8.828125-8.824218 0-4.878907 3.953125-8.8281255 8.828125-8.8281255h35.308594c4.875 0 8.828125 3.9492185 8.828125 8.8281255 0 4.875-3.953125 8.824218-8.828125 8.824218zm0 0" fill="#bdc3c7"/></svg>